<svg width="54" height="62" viewBox="0 0 54 62" fill="none" xmlns="http://www.w3.org/2000/svg">
<path d="M53.8444 31.1818C53.8444 37.5492 52.6796 43.0237 50.3501 47.6051C48.0205 52.1671 44.8271 55.6809 40.7698 58.1463C36.7319 60.5923 32.1408 61.8153 26.9964 61.8153C21.8325 61.8153 17.222 60.5923 13.1647 58.1463C9.12681 55.6809 5.94309 52.1574 3.61355 47.576C1.284 42.9946 0.11923 37.5298 0.11923 31.1818C0.11923 24.8144 1.284 19.3497 3.61355 14.7876C5.94309 10.2062 9.12681 6.69247 13.1647 4.24645C17.222 1.78101 21.8325 0.548293 26.9964 0.548293C32.1408 0.548293 36.7319 1.78101 40.7698 4.24645C44.8271 6.69247 48.0205 10.2062 50.3501 14.7876C52.6796 19.3497 53.8444 24.8144 53.8444 31.1818ZM44.9339 31.1818C44.9339 26.3286 44.1476 22.2422 42.5752 18.9226C41.0222 15.5836 38.8867 13.0599 36.1689 11.3516C33.4706 9.62382 30.413 8.75994 26.9964 8.75994C23.5603 8.75994 20.493 9.62382 17.7947 11.3516C15.0963 13.0599 12.9608 15.5836 11.3884 18.9226C9.83538 22.2422 9.05886 26.3286 9.05886 31.1818C9.05886 36.035 9.83538 40.1312 11.3884 43.4702C12.9608 46.7898 15.0963 49.3134 17.7947 51.0412C20.493 52.7495 23.5603 53.6037 26.9964 53.6037C30.413 53.6037 33.4706 52.7495 36.1689 51.0412C38.8867 49.3134 41.0222 46.7898 42.5752 43.4702C44.1476 40.1312 44.9339 36.035 44.9339 31.1818Z" fill="#EDD91F"/>
</svg>
