<svg width="43" height="60" viewBox="0 0 43 60" fill="none" xmlns="http://www.w3.org/2000/svg">
<path d="M0.826261 60V0.363635H22.0834C26.723 0.363635 30.5668 1.20809 33.6146 2.89701C36.6624 4.58593 38.9434 6.89607 40.4577 9.82741C41.9719 12.7393 42.729 16.0201 42.729 19.6697C42.729 23.3388 41.9622 26.639 40.4285 29.5703C38.9143 32.4822 36.6236 34.7924 33.5564 36.5007C30.5086 38.1896 26.6745 39.0341 22.0542 39.0341H7.43635V31.4048H21.2389C24.1702 31.4048 26.5483 30.9001 28.3731 29.8906C30.1979 28.8617 31.5374 27.464 32.3916 25.6974C33.2458 23.9309 33.6729 21.9216 33.6729 19.6697C33.6729 17.4179 33.2458 15.4183 32.3916 13.6712C31.5374 11.924 30.1882 10.5554 28.344 9.56534C26.5192 8.57528 24.112 8.08025 21.1224 8.08025H9.82413V60H0.826261Z" fill="#EDD91F"/>
</svg>
