<svg width="61" height="60" viewBox="0 0 61 60" fill="none" xmlns="http://www.w3.org/2000/svg">
<g opacity="0.9">
<mask id="path-1-inside-1_286_229" fill="white">
<path d="M58.4917 18.3519C60.0617 22.0543 60.8467 25.9373 60.8467 30.0009C60.8467 34.0646 60.0617 37.9676 58.4917 41.7099C56.9629 45.2511 54.8304 48.4097 52.0942 51.1859C49.3179 54.0033 46.1386 56.1564 42.5561 57.6451C38.8136 59.215 34.9104 60 30.8467 60C26.7829 60 22.8998 59.215 19.1973 57.6451C15.6561 56.1564 12.4767 54.0033 9.65918 51.1859C6.96293 48.5297 4.83043 45.3711 3.26168 41.7099C1.65168 37.8876 0.84668 33.9846 0.84668 30.0009C0.84668 26.0173 1.65168 22.1343 3.26168 18.3519C4.83168 14.6095 6.96418 11.4303 9.65918 8.8141C12.4767 5.99669 15.6561 3.84363 19.1973 2.35493C23.0198 0.784976 26.9029 0 30.8467 0C34.7504 0 38.6536 0.784976 42.5561 2.35493C46.1373 3.84363 49.3167 5.99669 52.0942 8.8141C54.8304 11.5503 56.9629 14.7295 58.4917 18.3519ZM30.5448 4.16612C23.7036 4.12612 17.8986 6.3898 13.1298 10.9572C8.36105 15.5245 5.6748 21.1481 5.07105 27.8279H5.13105V27.466L5.19105 27.2841V27.1642L5.31105 26.5004L5.43105 26.1386L5.49105 25.8367C5.57105 25.5142 5.63168 25.293 5.67293 25.173C5.67293 25.133 5.68293 25.0723 5.70293 24.9911C5.72293 24.9098 5.73293 24.8492 5.73293 24.8092L5.85293 24.5074L5.91293 24.1455C5.95293 24.1055 5.97293 24.0655 5.97293 24.0255C6.01293 23.9455 6.03293 23.8849 6.03293 23.8436C6.67668 22.0324 7.44105 20.3625 8.32605 18.8338C9.17105 17.4251 10.3179 15.9764 11.7667 14.4877C13.0142 13.2402 14.4829 12.0934 16.1729 11.0472C17.6217 10.1222 19.3117 9.31721 21.2429 8.63223C21.3229 8.59223 21.4336 8.55223 21.5748 8.51223C21.7161 8.47224 21.8267 8.45224 21.9067 8.45224C21.9467 8.45224 22.0073 8.43224 22.0886 8.39224C22.1698 8.35224 22.2304 8.33224 22.2704 8.33224L22.6323 8.27224C22.7536 8.23224 22.9748 8.17162 23.2961 8.09037L24.0198 7.9085C24.1411 7.9085 24.2417 7.8885 24.3217 7.8485L24.6836 7.78851C24.7636 7.78851 24.8842 7.77851 25.0454 7.75851C25.2067 7.73851 25.3273 7.72851 25.4073 7.72851L26.1311 7.66851C26.1711 7.66851 26.2317 7.64851 26.3129 7.60851H26.7967C26.8767 7.60851 26.9973 7.59851 27.1586 7.57851C27.3198 7.55851 27.4404 7.54851 27.5204 7.54851H28.2442C28.3242 7.54851 28.4448 7.55851 28.6061 7.57851C28.7673 7.59851 28.8879 7.60851 28.9679 7.60851H29.2698C29.4311 7.60851 29.5517 7.62851 29.6317 7.66851C29.9942 7.66851 30.4567 7.70851 31.0192 7.78851C31.0992 7.82851 31.2198 7.8485 31.3811 7.8485L31.5629 7.9085H31.7448C31.8248 7.9485 31.9354 7.9885 32.0767 8.0285C32.2179 8.0685 32.3286 8.0885 32.4086 8.0885H32.6504C32.6904 8.1285 32.7304 8.1485 32.7704 8.1485C32.8104 8.1485 32.8604 8.1585 32.9204 8.17849C32.9804 8.19849 33.0304 8.20849 33.0704 8.20849C33.1104 8.20849 33.1711 8.22849 33.2523 8.26849C33.3336 8.30849 33.3942 8.32849 33.4342 8.32849H33.6161L33.7361 8.38849C34.0586 8.46849 34.2798 8.54911 34.3998 8.63036H34.5817L34.7636 8.69035C34.9248 8.77035 35.0254 8.81035 35.0654 8.81035C35.2267 8.89035 35.3473 8.93035 35.4273 8.93035L35.5473 8.99034L35.7292 9.05034C35.7692 9.09034 35.8598 9.14034 36.0011 9.20034C36.1423 9.26034 36.2529 9.31033 36.3329 9.35033L36.6948 9.47033C36.7748 9.55033 36.8754 9.59033 36.9967 9.59033C37.0367 9.63032 37.1373 9.69095 37.2986 9.77219L37.4186 9.83219L37.6004 9.89219C40.8192 11.5821 43.4348 13.8758 45.4473 16.7732C46.4136 18.1419 47.1779 19.5906 47.7404 21.1193C47.8204 21.2806 47.8604 21.3812 47.8604 21.4212C47.9004 21.4612 47.9204 21.5012 47.9204 21.5412C47.9204 21.5812 47.9404 21.6212 47.9804 21.6612C48.0204 21.8224 48.0811 22.0237 48.1623 22.2649C48.1623 22.3049 48.1823 22.3449 48.2223 22.3849L48.2823 22.5049V22.6868L48.3423 22.8068C48.3823 22.8468 48.4223 22.9474 48.4623 23.1087C48.5023 23.2699 48.5223 23.3705 48.5223 23.4105C48.6023 23.6518 48.6423 23.833 48.6423 23.9543C48.6823 24.1155 48.7429 24.3167 48.8242 24.558C48.8242 24.598 48.8342 24.6886 48.8542 24.8298C48.8742 24.9711 48.8842 25.0817 48.8842 25.1617L48.9442 25.2817V25.4017C48.9442 25.4417 48.9642 25.5023 49.0042 25.5836V25.7036C49.2054 27.4335 49.2254 28.9422 49.0642 30.2297C48.9429 31.5571 48.6611 32.9052 48.2186 34.2739C47.8561 35.3201 47.3529 36.447 46.7092 37.6544C45.9854 38.7807 45.3617 39.6656 44.8379 40.3094C44.7579 40.4306 44.5967 40.6119 44.3542 40.8531C44.3142 40.9331 44.2336 41.0337 44.1123 41.155C43.9911 41.2762 43.9104 41.3768 43.8704 41.4568C43.8304 41.5368 43.7498 41.6274 43.6286 41.7287C43.5073 41.8299 43.4067 41.9006 43.3267 41.9406L43.0248 42.1824C42.9848 42.2224 42.9448 42.2724 42.9048 42.3324C42.8648 42.3924 42.8248 42.4424 42.7848 42.4824L42.4829 42.7243C42.4029 42.7643 42.3023 42.8449 42.1811 42.9662C42.1011 43.0062 42.0004 43.0768 41.8792 43.178C41.7579 43.2793 41.6773 43.3499 41.6373 43.3899C41.4761 43.5111 41.2748 43.6518 41.0336 43.8118C40.7923 43.9717 40.5711 44.1124 40.3698 44.2336C40.2898 44.3136 40.2092 44.3536 40.1279 44.3536C40.7717 44.1524 41.5361 43.8305 42.4211 43.388C43.7486 42.7043 44.9354 41.9193 45.9817 41.0331C47.1492 39.9869 48.1348 38.9207 48.9386 37.8344C49.7036 36.7882 50.4279 35.5208 51.1117 34.0321L51.1717 33.9121V33.7921L51.4136 33.3083C51.4136 33.2683 51.4236 33.2183 51.4436 33.1583C51.4636 33.0983 51.4736 33.0483 51.4736 33.0083C51.5136 32.9683 51.5536 32.8877 51.5936 32.7665C51.6336 32.6452 51.6536 32.5646 51.6536 32.5246L51.7136 32.2227L51.8336 31.9809C51.8736 31.9009 51.8936 31.8003 51.8936 31.679C51.8936 31.5578 51.9136 31.4771 51.9536 31.4371C51.9936 31.3971 52.0136 31.3571 52.0136 31.3171V31.1972L52.0736 30.8953C52.1536 30.734 52.1936 30.5728 52.1936 30.4115C52.2336 30.3716 52.2536 30.2909 52.2536 30.1697C52.2536 30.0484 52.2736 29.9478 52.3136 29.8678L52.3736 29.566V29.3241C52.3736 29.2841 52.3936 29.2035 52.4336 29.0822C52.4736 28.961 52.4936 28.8603 52.4936 28.7804V28.2366C52.5336 28.1154 52.5536 27.9341 52.5536 27.6929V27.1492L52.6136 26.8473V26.6054C52.6136 26.3642 52.5936 26.1829 52.5536 26.0617V25.518C52.5536 25.3967 52.5436 25.2155 52.5236 24.9742C52.5036 24.733 52.4936 24.5517 52.4936 24.4305C52.4536 24.3092 52.4336 24.128 52.4336 23.8868C52.3936 23.8468 52.3736 23.7661 52.3736 23.6449L52.3136 23.343C52.3136 23.303 52.3036 23.2224 52.2836 23.1012C52.2636 22.9799 52.2536 22.8793 52.2536 22.7993C52.1736 22.638 52.1336 22.4768 52.1336 22.3156C52.0536 22.0743 52.0136 21.8931 52.0136 21.7718L51.8317 21.2281C51.7917 21.1068 51.7417 20.9456 51.6817 20.7444C51.6217 20.5431 51.5917 20.4225 51.5917 20.3825C51.2692 19.4163 50.9073 18.5307 50.5061 17.7257C49.8623 16.3982 49.1379 15.2114 48.3329 14.1652C48.2929 14.0439 48.1923 13.9033 48.0311 13.7433C47.9511 13.5821 47.8504 13.4415 47.7292 13.3215C47.6892 13.2815 47.6392 13.2208 47.5792 13.1396C47.5192 13.0583 47.4692 12.9977 47.4292 12.9577C47.3892 12.9177 47.3392 12.8471 47.2792 12.7459C47.2192 12.6446 47.1692 12.574 47.1292 12.534C46.9679 12.3727 46.7367 12.1315 46.4354 11.8103C46.1342 11.489 45.9029 11.2478 45.7417 11.0865C45.4192 10.764 44.9361 10.3216 44.2923 9.75907C44.2523 9.71907 44.0411 9.55783 43.6586 9.27534C43.2761 8.99284 42.9842 8.7716 42.7829 8.61161C40.8917 7.28415 38.8192 6.21793 36.5654 5.41296H36.4454L36.3254 5.35296C36.2854 5.31296 36.2248 5.29296 36.1436 5.29296C35.9823 5.21296 35.8617 5.17296 35.7817 5.17296C35.7417 5.17296 35.6811 5.15296 35.5998 5.11297C35.5186 5.07297 35.4579 5.05297 35.4179 5.05297H35.3579C35.2779 5.01297 35.2173 4.99297 35.1761 4.99297C35.1348 4.99297 35.0742 4.97297 34.9942 4.93297C34.9142 4.93297 34.7936 4.89297 34.6323 4.81297C34.5923 4.81297 34.5317 4.80297 34.4504 4.78298C34.3692 4.76298 34.3086 4.75298 34.2686 4.75298L33.5448 4.57111C32.0561 4.28987 31.0498 4.14925 30.5261 4.14925L30.5448 4.16612ZM42.4361 30.0009C42.4361 26.9023 41.3392 24.2667 39.1454 22.0943C36.9517 19.9219 34.3261 18.8357 31.2686 18.8357C28.1698 18.8357 25.5242 19.9219 23.3317 22.0943C21.1392 24.2667 20.0423 26.9023 20.0411 30.0009C20.0398 33.0996 21.1367 35.7351 23.3317 37.9076C25.5267 40.08 28.1723 41.1662 31.2686 41.1662C34.3273 41.1662 36.9529 40.08 39.1454 37.9076C41.3379 35.7351 42.4348 33.0996 42.4361 30.0009ZM31.2086 55.8358C34.5886 55.957 37.8079 55.4139 40.8667 54.2064C43.9254 52.999 46.5511 51.309 48.7436 49.1366C50.9361 46.9642 52.7267 44.4086 54.1154 41.47C55.5042 38.5313 56.3392 35.4326 56.6204 32.174V32.234L56.5604 32.5359V32.7177L56.5004 32.7777V32.8977C56.5004 33.019 56.4604 33.2402 56.3804 33.5615L56.3204 33.8633L56.2604 34.2252C56.2204 34.3464 56.1598 34.5677 56.0786 34.8889C56.0786 34.9289 56.0386 35.0295 55.9586 35.1908L55.7767 35.8545V36.0364L55.7167 36.1564C55.1129 37.9676 54.3279 39.6375 53.3617 41.1662C52.3954 42.7362 51.2486 44.1849 49.9211 45.5123C48.4723 46.961 47.0036 48.1279 45.5148 49.0128C43.9861 49.9791 42.3161 50.764 40.5048 51.3678C40.1823 51.4478 39.9411 51.5284 39.7811 51.6096C39.7411 51.6096 39.6911 51.6196 39.6311 51.6396C39.5711 51.6596 39.5211 51.6696 39.4811 51.6696L39.1192 51.7896C38.7967 51.8696 38.5754 51.9303 38.4554 51.9715C38.2942 51.9715 38.0529 52.0115 37.7317 52.0915C37.6917 52.0915 37.6311 52.1015 37.5498 52.1215C37.4686 52.1415 37.4079 52.1515 37.3679 52.1515L37.0061 52.2115C36.8848 52.2115 36.6636 52.2515 36.3423 52.3315C36.0198 52.3315 35.7786 52.3515 35.6186 52.3915H34.8948C34.7336 52.4315 34.4923 52.4515 34.1711 52.4515H33.5073C33.1848 52.4515 32.9436 52.4315 32.7836 52.3915H32.0598C31.7786 52.3515 31.3161 52.2909 30.6723 52.2096C30.6323 52.2096 30.5717 52.1996 30.4904 52.1796C30.4092 52.1596 30.3486 52.1496 30.3086 52.1496H30.1267C30.0867 52.1096 30.0467 52.0896 30.0067 52.0896C29.9267 52.0496 29.8061 52.0296 29.6448 52.0296C29.4836 52.0296 29.3629 52.0096 29.2829 51.9696L29.1629 51.9096H28.9811C28.9411 51.9096 28.8804 51.8896 28.7992 51.8496C28.7179 51.8096 28.6573 51.7896 28.6173 51.7896C28.5773 51.7896 28.5273 51.7796 28.4673 51.7596C28.4073 51.7396 28.3573 51.7296 28.3173 51.7296L27.9554 51.6096C27.8754 51.5696 27.7648 51.5296 27.6236 51.4896C27.4823 51.4496 27.3717 51.4296 27.2917 51.4296L27.1098 51.3696L26.9898 51.3096C26.9498 51.3096 26.8892 51.2896 26.8079 51.2496C26.7267 51.2097 26.6661 51.1897 26.6261 51.1897C26.5861 51.1497 26.5461 51.1297 26.5061 51.1297C26.4661 51.1297 26.4361 51.1197 26.4161 51.0997C26.3961 51.0797 26.3661 51.0697 26.3261 51.0697L26.1442 51.0097L26.0242 50.9497C25.9442 50.9497 25.8336 50.9197 25.6923 50.8597C25.5511 50.7997 25.4404 50.7497 25.3604 50.7097L25.2404 50.6497L25.0586 50.5297C25.0186 50.5297 24.9179 50.4897 24.7567 50.4097C24.5954 50.3297 24.4948 50.2897 24.4548 50.2897L24.2729 50.1697L24.1529 50.1097C20.9342 48.4997 18.3186 46.2061 16.3061 43.2287C15.3398 41.8599 14.5548 40.4112 13.9511 38.8825L13.8311 38.6407C13.8311 38.6007 13.8111 38.54 13.7711 38.4588V38.3388C13.6911 38.2176 13.6104 38.0363 13.5292 37.7951C13.5292 37.7551 13.5192 37.7051 13.4992 37.6451C13.4792 37.5851 13.4692 37.5351 13.4692 37.4951C13.4292 37.4551 13.4092 37.4151 13.4092 37.3751V37.3151C13.3292 37.1538 13.2892 37.0532 13.2892 37.0132C13.2892 36.9732 13.2792 36.9232 13.2592 36.8632C13.2392 36.8032 13.2292 36.7532 13.2292 36.7132L13.0473 36.1695C13.0073 36.0083 12.9467 35.807 12.8654 35.5658C12.8654 35.4858 12.8254 35.2845 12.7454 34.962C12.7454 34.8408 12.7054 34.6595 12.6254 34.4183V34.1164C12.5854 34.0364 12.5654 33.9358 12.5654 33.8146C12.3642 32.0846 12.3442 30.5959 12.5054 29.3485C12.6267 27.9398 12.9086 26.5917 13.3511 25.3042C13.7936 23.9355 14.2967 22.8087 14.8604 21.9237C15.5042 20.8375 16.1279 19.9319 16.7317 19.2069C16.8117 19.0857 16.9729 18.9044 17.2154 18.6632C17.2554 18.6232 17.3261 18.5425 17.4273 18.4213C17.5286 18.3001 17.6192 18.1994 17.6992 18.1194L18.2429 17.5757L18.5448 17.3338L18.7867 17.092L19.0886 16.8501C19.1286 16.7701 19.2292 16.6895 19.3904 16.6082C19.4704 16.5682 19.5711 16.4976 19.6923 16.3964C19.8136 16.2951 19.8942 16.2045 19.9342 16.1245C20.1754 16.0033 20.3767 15.8626 20.5379 15.7026C20.6179 15.6626 20.7286 15.602 20.8698 15.5208C21.0111 15.4395 21.1217 15.3789 21.2017 15.3389C21.2817 15.2589 21.3623 15.1983 21.4436 15.157C20.3973 15.5595 19.6329 15.8814 19.1504 16.1226C17.7817 16.8463 16.5948 17.6513 15.5898 18.5375C14.4636 19.4625 13.4779 20.5087 12.6329 21.6762C11.7879 22.8837 11.0636 24.1511 10.4598 25.4786C10.4598 25.5186 10.4398 25.5586 10.3998 25.5986V25.7186L10.2798 26.0204L10.1598 26.2623C10.1598 26.3023 10.1498 26.3423 10.1298 26.3823C10.1098 26.4223 10.0998 26.4623 10.0998 26.5023L9.91793 27.046L9.79793 27.2879L9.73793 27.5298C9.65793 27.771 9.61793 27.9523 9.61793 28.0735L9.55793 28.1935V28.3754L9.49793 28.6172C9.41793 28.8585 9.37793 29.0397 9.37793 29.161C9.29793 29.4022 9.25793 29.5835 9.25793 29.7047L9.19793 29.9466C9.19793 30.0678 9.17793 30.1684 9.13793 30.2484C9.13793 30.4897 9.11793 30.6709 9.07793 30.7922C9.07793 31.0334 9.05793 31.2146 9.01793 31.3359V31.8796C9.01793 32.1209 8.99793 32.3021 8.95793 32.4234V33.7508C8.95793 33.7908 8.96793 33.8408 8.98793 33.9008C9.00793 33.9608 9.01793 34.0108 9.01793 34.0508C9.01793 34.5333 9.03793 34.8752 9.07793 35.0764C9.11793 35.1977 9.13793 35.3789 9.13793 35.6201C9.13793 35.6601 9.14793 35.7101 9.16793 35.7701C9.18793 35.8301 9.19793 35.8801 9.19793 35.9201L9.25793 36.162C9.25793 36.202 9.26793 36.2826 9.28793 36.4039C9.30793 36.5251 9.31793 36.6257 9.31793 36.7057C9.39793 36.947 9.43793 37.1282 9.43793 37.2495C9.43793 37.2895 9.45793 37.3701 9.49793 37.4913C9.53793 37.6126 9.55793 37.6932 9.55793 37.7332C9.63793 37.9744 9.67793 38.1557 9.67793 38.2769C10.1604 39.8469 10.6836 41.175 11.2473 42.2612C11.7298 43.3074 12.4342 44.5149 13.3604 45.8836C13.4004 45.9236 13.5011 46.0642 13.6623 46.3054C13.8236 46.4667 13.9242 46.5873 13.9642 46.6673C14.0042 46.7073 14.0648 46.7779 14.1461 46.8792C14.2273 46.9804 14.2879 47.051 14.3279 47.091C14.3679 47.171 14.4686 47.2916 14.6298 47.4529C14.9923 47.9354 15.4548 48.4185 16.0173 48.9022C16.3798 49.3047 16.8629 49.7472 17.4667 50.2297C17.7892 50.5109 18.2723 50.8934 18.9161 51.3771C20.9686 52.8258 23.0611 53.8921 25.1936 54.5758C25.2336 54.5758 25.2536 54.5958 25.2536 54.6358L25.3736 54.6958C25.4536 54.6958 25.5142 54.7158 25.5554 54.7558C25.6767 54.7558 25.8173 54.7958 25.9773 54.8758C26.0173 54.8758 26.0779 54.8858 26.1592 54.9058C26.2404 54.9258 26.3011 54.9358 26.3411 54.9358C26.3811 54.9758 26.4417 54.9958 26.5229 54.9958C26.5629 55.0358 26.6236 55.0558 26.7048 55.0558C26.7448 55.0558 26.8054 55.0758 26.8867 55.1158C26.9679 55.1558 27.0286 55.1758 27.0686 55.1758C27.1086 55.1758 27.1792 55.1858 27.2804 55.2058C27.3817 55.2258 27.4523 55.2358 27.4923 55.2358L28.2161 55.4176C29.0611 55.6189 29.9867 55.7595 30.9929 55.8395H31.2348L31.2086 55.8358Z"/>
</mask>
<path d="M58.4917 18.3519C60.0617 22.0543 60.8467 25.9373 60.8467 30.0009C60.8467 34.0646 60.0617 37.9676 58.4917 41.7099C56.9629 45.2511 54.8304 48.4097 52.0942 51.1859C49.3179 54.0033 46.1386 56.1564 42.5561 57.6451C38.8136 59.215 34.9104 60 30.8467 60C26.7829 60 22.8998 59.215 19.1973 57.6451C15.6561 56.1564 12.4767 54.0033 9.65918 51.1859C6.96293 48.5297 4.83043 45.3711 3.26168 41.7099C1.65168 37.8876 0.84668 33.9846 0.84668 30.0009C0.84668 26.0173 1.65168 22.1343 3.26168 18.3519C4.83168 14.6095 6.96418 11.4303 9.65918 8.8141C12.4767 5.99669 15.6561 3.84363 19.1973 2.35493C23.0198 0.784976 26.9029 0 30.8467 0C34.7504 0 38.6536 0.784976 42.5561 2.35493C46.1373 3.84363 49.3167 5.99669 52.0942 8.8141C54.8304 11.5503 56.9629 14.7295 58.4917 18.3519ZM30.5448 4.16612C23.7036 4.12612 17.8986 6.3898 13.1298 10.9572C8.36105 15.5245 5.6748 21.1481 5.07105 27.8279H5.13105V27.466L5.19105 27.2841V27.1642L5.31105 26.5004L5.43105 26.1386L5.49105 25.8367C5.57105 25.5142 5.63168 25.293 5.67293 25.173C5.67293 25.133 5.68293 25.0723 5.70293 24.9911C5.72293 24.9098 5.73293 24.8492 5.73293 24.8092L5.85293 24.5074L5.91293 24.1455C5.95293 24.1055 5.97293 24.0655 5.97293 24.0255C6.01293 23.9455 6.03293 23.8849 6.03293 23.8436C6.67668 22.0324 7.44105 20.3625 8.32605 18.8338C9.17105 17.4251 10.3179 15.9764 11.7667 14.4877C13.0142 13.2402 14.4829 12.0934 16.1729 11.0472C17.6217 10.1222 19.3117 9.31721 21.2429 8.63223C21.3229 8.59223 21.4336 8.55223 21.5748 8.51223C21.7161 8.47224 21.8267 8.45224 21.9067 8.45224C21.9467 8.45224 22.0073 8.43224 22.0886 8.39224C22.1698 8.35224 22.2304 8.33224 22.2704 8.33224L22.6323 8.27224C22.7536 8.23224 22.9748 8.17162 23.2961 8.09037L24.0198 7.9085C24.1411 7.9085 24.2417 7.8885 24.3217 7.8485L24.6836 7.78851C24.7636 7.78851 24.8842 7.77851 25.0454 7.75851C25.2067 7.73851 25.3273 7.72851 25.4073 7.72851L26.1311 7.66851C26.1711 7.66851 26.2317 7.64851 26.3129 7.60851H26.7967C26.8767 7.60851 26.9973 7.59851 27.1586 7.57851C27.3198 7.55851 27.4404 7.54851 27.5204 7.54851H28.2442C28.3242 7.54851 28.4448 7.55851 28.6061 7.57851C28.7673 7.59851 28.8879 7.60851 28.9679 7.60851H29.2698C29.4311 7.60851 29.5517 7.62851 29.6317 7.66851C29.9942 7.66851 30.4567 7.70851 31.0192 7.78851C31.0992 7.82851 31.2198 7.8485 31.3811 7.8485L31.5629 7.9085H31.7448C31.8248 7.9485 31.9354 7.9885 32.0767 8.0285C32.2179 8.0685 32.3286 8.0885 32.4086 8.0885H32.6504C32.6904 8.1285 32.7304 8.1485 32.7704 8.1485C32.8104 8.1485 32.8604 8.1585 32.9204 8.17849C32.9804 8.19849 33.0304 8.20849 33.0704 8.20849C33.1104 8.20849 33.1711 8.22849 33.2523 8.26849C33.3336 8.30849 33.3942 8.32849 33.4342 8.32849H33.6161L33.7361 8.38849C34.0586 8.46849 34.2798 8.54911 34.3998 8.63036H34.5817L34.7636 8.69035C34.9248 8.77035 35.0254 8.81035 35.0654 8.81035C35.2267 8.89035 35.3473 8.93035 35.4273 8.93035L35.5473 8.99034L35.7292 9.05034C35.7692 9.09034 35.8598 9.14034 36.0011 9.20034C36.1423 9.26034 36.2529 9.31033 36.3329 9.35033L36.6948 9.47033C36.7748 9.55033 36.8754 9.59033 36.9967 9.59033C37.0367 9.63032 37.1373 9.69095 37.2986 9.77219L37.4186 9.83219L37.6004 9.89219C40.8192 11.5821 43.4348 13.8758 45.4473 16.7732C46.4136 18.1419 47.1779 19.5906 47.7404 21.1193C47.8204 21.2806 47.8604 21.3812 47.8604 21.4212C47.9004 21.4612 47.9204 21.5012 47.9204 21.5412C47.9204 21.5812 47.9404 21.6212 47.9804 21.6612C48.0204 21.8224 48.0811 22.0237 48.1623 22.2649C48.1623 22.3049 48.1823 22.3449 48.2223 22.3849L48.2823 22.5049V22.6868L48.3423 22.8068C48.3823 22.8468 48.4223 22.9474 48.4623 23.1087C48.5023 23.2699 48.5223 23.3705 48.5223 23.4105C48.6023 23.6518 48.6423 23.833 48.6423 23.9543C48.6823 24.1155 48.7429 24.3167 48.8242 24.558C48.8242 24.598 48.8342 24.6886 48.8542 24.8298C48.8742 24.9711 48.8842 25.0817 48.8842 25.1617L48.9442 25.2817V25.4017C48.9442 25.4417 48.9642 25.5023 49.0042 25.5836V25.7036C49.2054 27.4335 49.2254 28.9422 49.0642 30.2297C48.9429 31.5571 48.6611 32.9052 48.2186 34.2739C47.8561 35.3201 47.3529 36.447 46.7092 37.6544C45.9854 38.7807 45.3617 39.6656 44.8379 40.3094C44.7579 40.4306 44.5967 40.6119 44.3542 40.8531C44.3142 40.9331 44.2336 41.0337 44.1123 41.155C43.9911 41.2762 43.9104 41.3768 43.8704 41.4568C43.8304 41.5368 43.7498 41.6274 43.6286 41.7287C43.5073 41.8299 43.4067 41.9006 43.3267 41.9406L43.0248 42.1824C42.9848 42.2224 42.9448 42.2724 42.9048 42.3324C42.8648 42.3924 42.8248 42.4424 42.7848 42.4824L42.4829 42.7243C42.4029 42.7643 42.3023 42.8449 42.1811 42.9662C42.1011 43.0062 42.0004 43.0768 41.8792 43.178C41.7579 43.2793 41.6773 43.3499 41.6373 43.3899C41.4761 43.5111 41.2748 43.6518 41.0336 43.8118C40.7923 43.9717 40.5711 44.1124 40.3698 44.2336C40.2898 44.3136 40.2092 44.3536 40.1279 44.3536C40.7717 44.1524 41.5361 43.8305 42.4211 43.388C43.7486 42.7043 44.9354 41.9193 45.9817 41.0331C47.1492 39.9869 48.1348 38.9207 48.9386 37.8344C49.7036 36.7882 50.4279 35.5208 51.1117 34.0321L51.1717 33.9121V33.7921L51.4136 33.3083C51.4136 33.2683 51.4236 33.2183 51.4436 33.1583C51.4636 33.0983 51.4736 33.0483 51.4736 33.0083C51.5136 32.9683 51.5536 32.8877 51.5936 32.7665C51.6336 32.6452 51.6536 32.5646 51.6536 32.5246L51.7136 32.2227L51.8336 31.9809C51.8736 31.9009 51.8936 31.8003 51.8936 31.679C51.8936 31.5578 51.9136 31.4771 51.9536 31.4371C51.9936 31.3971 52.0136 31.3571 52.0136 31.3171V31.1972L52.0736 30.8953C52.1536 30.734 52.1936 30.5728 52.1936 30.4115C52.2336 30.3716 52.2536 30.2909 52.2536 30.1697C52.2536 30.0484 52.2736 29.9478 52.3136 29.8678L52.3736 29.566V29.3241C52.3736 29.2841 52.3936 29.2035 52.4336 29.0822C52.4736 28.961 52.4936 28.8603 52.4936 28.7804V28.2366C52.5336 28.1154 52.5536 27.9341 52.5536 27.6929V27.1492L52.6136 26.8473V26.6054C52.6136 26.3642 52.5936 26.1829 52.5536 26.0617V25.518C52.5536 25.3967 52.5436 25.2155 52.5236 24.9742C52.5036 24.733 52.4936 24.5517 52.4936 24.4305C52.4536 24.3092 52.4336 24.128 52.4336 23.8868C52.3936 23.8468 52.3736 23.7661 52.3736 23.6449L52.3136 23.343C52.3136 23.303 52.3036 23.2224 52.2836 23.1012C52.2636 22.9799 52.2536 22.8793 52.2536 22.7993C52.1736 22.638 52.1336 22.4768 52.1336 22.3156C52.0536 22.0743 52.0136 21.8931 52.0136 21.7718L51.8317 21.2281C51.7917 21.1068 51.7417 20.9456 51.6817 20.7444C51.6217 20.5431 51.5917 20.4225 51.5917 20.3825C51.2692 19.4163 50.9073 18.5307 50.5061 17.7257C49.8623 16.3982 49.1379 15.2114 48.3329 14.1652C48.2929 14.0439 48.1923 13.9033 48.0311 13.7433C47.9511 13.5821 47.8504 13.4415 47.7292 13.3215C47.6892 13.2815 47.6392 13.2208 47.5792 13.1396C47.5192 13.0583 47.4692 12.9977 47.4292 12.9577C47.3892 12.9177 47.3392 12.8471 47.2792 12.7459C47.2192 12.6446 47.1692 12.574 47.1292 12.534C46.9679 12.3727 46.7367 12.1315 46.4354 11.8103C46.1342 11.489 45.9029 11.2478 45.7417 11.0865C45.4192 10.764 44.9361 10.3216 44.2923 9.75907C44.2523 9.71907 44.0411 9.55783 43.6586 9.27534C43.2761 8.99284 42.9842 8.7716 42.7829 8.61161C40.8917 7.28415 38.8192 6.21793 36.5654 5.41296H36.4454L36.3254 5.35296C36.2854 5.31296 36.2248 5.29296 36.1436 5.29296C35.9823 5.21296 35.8617 5.17296 35.7817 5.17296C35.7417 5.17296 35.6811 5.15296 35.5998 5.11297C35.5186 5.07297 35.4579 5.05297 35.4179 5.05297H35.3579C35.2779 5.01297 35.2173 4.99297 35.1761 4.99297C35.1348 4.99297 35.0742 4.97297 34.9942 4.93297C34.9142 4.93297 34.7936 4.89297 34.6323 4.81297C34.5923 4.81297 34.5317 4.80297 34.4504 4.78298C34.3692 4.76298 34.3086 4.75298 34.2686 4.75298L33.5448 4.57111C32.0561 4.28987 31.0498 4.14925 30.5261 4.14925L30.5448 4.16612ZM42.4361 30.0009C42.4361 26.9023 41.3392 24.2667 39.1454 22.0943C36.9517 19.9219 34.3261 18.8357 31.2686 18.8357C28.1698 18.8357 25.5242 19.9219 23.3317 22.0943C21.1392 24.2667 20.0423 26.9023 20.0411 30.0009C20.0398 33.0996 21.1367 35.7351 23.3317 37.9076C25.5267 40.08 28.1723 41.1662 31.2686 41.1662C34.3273 41.1662 36.9529 40.08 39.1454 37.9076C41.3379 35.7351 42.4348 33.0996 42.4361 30.0009ZM31.2086 55.8358C34.5886 55.957 37.8079 55.4139 40.8667 54.2064C43.9254 52.999 46.5511 51.309 48.7436 49.1366C50.9361 46.9642 52.7267 44.4086 54.1154 41.47C55.5042 38.5313 56.3392 35.4326 56.6204 32.174V32.234L56.5604 32.5359V32.7177L56.5004 32.7777V32.8977C56.5004 33.019 56.4604 33.2402 56.3804 33.5615L56.3204 33.8633L56.2604 34.2252C56.2204 34.3464 56.1598 34.5677 56.0786 34.8889C56.0786 34.9289 56.0386 35.0295 55.9586 35.1908L55.7767 35.8545V36.0364L55.7167 36.1564C55.1129 37.9676 54.3279 39.6375 53.3617 41.1662C52.3954 42.7362 51.2486 44.1849 49.9211 45.5123C48.4723 46.961 47.0036 48.1279 45.5148 49.0128C43.9861 49.9791 42.3161 50.764 40.5048 51.3678C40.1823 51.4478 39.9411 51.5284 39.7811 51.6096C39.7411 51.6096 39.6911 51.6196 39.6311 51.6396C39.5711 51.6596 39.5211 51.6696 39.4811 51.6696L39.1192 51.7896C38.7967 51.8696 38.5754 51.9303 38.4554 51.9715C38.2942 51.9715 38.0529 52.0115 37.7317 52.0915C37.6917 52.0915 37.6311 52.1015 37.5498 52.1215C37.4686 52.1415 37.4079 52.1515 37.3679 52.1515L37.0061 52.2115C36.8848 52.2115 36.6636 52.2515 36.3423 52.3315C36.0198 52.3315 35.7786 52.3515 35.6186 52.3915H34.8948C34.7336 52.4315 34.4923 52.4515 34.1711 52.4515H33.5073C33.1848 52.4515 32.9436 52.4315 32.7836 52.3915H32.0598C31.7786 52.3515 31.3161 52.2909 30.6723 52.2096C30.6323 52.2096 30.5717 52.1996 30.4904 52.1796C30.4092 52.1596 30.3486 52.1496 30.3086 52.1496H30.1267C30.0867 52.1096 30.0467 52.0896 30.0067 52.0896C29.9267 52.0496 29.8061 52.0296 29.6448 52.0296C29.4836 52.0296 29.3629 52.0096 29.2829 51.9696L29.1629 51.9096H28.9811C28.9411 51.9096 28.8804 51.8896 28.7992 51.8496C28.7179 51.8096 28.6573 51.7896 28.6173 51.7896C28.5773 51.7896 28.5273 51.7796 28.4673 51.7596C28.4073 51.7396 28.3573 51.7296 28.3173 51.7296L27.9554 51.6096C27.8754 51.5696 27.7648 51.5296 27.6236 51.4896C27.4823 51.4496 27.3717 51.4296 27.2917 51.4296L27.1098 51.3696L26.9898 51.3096C26.9498 51.3096 26.8892 51.2896 26.8079 51.2496C26.7267 51.2097 26.6661 51.1897 26.6261 51.1897C26.5861 51.1497 26.5461 51.1297 26.5061 51.1297C26.4661 51.1297 26.4361 51.1197 26.4161 51.0997C26.3961 51.0797 26.3661 51.0697 26.3261 51.0697L26.1442 51.0097L26.0242 50.9497C25.9442 50.9497 25.8336 50.9197 25.6923 50.8597C25.5511 50.7997 25.4404 50.7497 25.3604 50.7097L25.2404 50.6497L25.0586 50.5297C25.0186 50.5297 24.9179 50.4897 24.7567 50.4097C24.5954 50.3297 24.4948 50.2897 24.4548 50.2897L24.2729 50.1697L24.1529 50.1097C20.9342 48.4997 18.3186 46.2061 16.3061 43.2287C15.3398 41.8599 14.5548 40.4112 13.9511 38.8825L13.8311 38.6407C13.8311 38.6007 13.8111 38.54 13.7711 38.4588V38.3388C13.6911 38.2176 13.6104 38.0363 13.5292 37.7951C13.5292 37.7551 13.5192 37.7051 13.4992 37.6451C13.4792 37.5851 13.4692 37.5351 13.4692 37.4951C13.4292 37.4551 13.4092 37.4151 13.4092 37.3751V37.3151C13.3292 37.1538 13.2892 37.0532 13.2892 37.0132C13.2892 36.9732 13.2792 36.9232 13.2592 36.8632C13.2392 36.8032 13.2292 36.7532 13.2292 36.7132L13.0473 36.1695C13.0073 36.0083 12.9467 35.807 12.8654 35.5658C12.8654 35.4858 12.8254 35.2845 12.7454 34.962C12.7454 34.8408 12.7054 34.6595 12.6254 34.4183V34.1164C12.5854 34.0364 12.5654 33.9358 12.5654 33.8146C12.3642 32.0846 12.3442 30.5959 12.5054 29.3485C12.6267 27.9398 12.9086 26.5917 13.3511 25.3042C13.7936 23.9355 14.2967 22.8087 14.8604 21.9237C15.5042 20.8375 16.1279 19.9319 16.7317 19.2069C16.8117 19.0857 16.9729 18.9044 17.2154 18.6632C17.2554 18.6232 17.3261 18.5425 17.4273 18.4213C17.5286 18.3001 17.6192 18.1994 17.6992 18.1194L18.2429 17.5757L18.5448 17.3338L18.7867 17.092L19.0886 16.8501C19.1286 16.7701 19.2292 16.6895 19.3904 16.6082C19.4704 16.5682 19.5711 16.4976 19.6923 16.3964C19.8136 16.2951 19.8942 16.2045 19.9342 16.1245C20.1754 16.0033 20.3767 15.8626 20.5379 15.7026C20.6179 15.6626 20.7286 15.602 20.8698 15.5208C21.0111 15.4395 21.1217 15.3789 21.2017 15.3389C21.2817 15.2589 21.3623 15.1983 21.4436 15.157C20.3973 15.5595 19.6329 15.8814 19.1504 16.1226C17.7817 16.8463 16.5948 17.6513 15.5898 18.5375C14.4636 19.4625 13.4779 20.5087 12.6329 21.6762C11.7879 22.8837 11.0636 24.1511 10.4598 25.4786C10.4598 25.5186 10.4398 25.5586 10.3998 25.5986V25.7186L10.2798 26.0204L10.1598 26.2623C10.1598 26.3023 10.1498 26.3423 10.1298 26.3823C10.1098 26.4223 10.0998 26.4623 10.0998 26.5023L9.91793 27.046L9.79793 27.2879L9.73793 27.5298C9.65793 27.771 9.61793 27.9523 9.61793 28.0735L9.55793 28.1935V28.3754L9.49793 28.6172C9.41793 28.8585 9.37793 29.0397 9.37793 29.161C9.29793 29.4022 9.25793 29.5835 9.25793 29.7047L9.19793 29.9466C9.19793 30.0678 9.17793 30.1684 9.13793 30.2484C9.13793 30.4897 9.11793 30.6709 9.07793 30.7922C9.07793 31.0334 9.05793 31.2146 9.01793 31.3359V31.8796C9.01793 32.1209 8.99793 32.3021 8.95793 32.4234V33.7508C8.95793 33.7908 8.96793 33.8408 8.98793 33.9008C9.00793 33.9608 9.01793 34.0108 9.01793 34.0508C9.01793 34.5333 9.03793 34.8752 9.07793 35.0764C9.11793 35.1977 9.13793 35.3789 9.13793 35.6201C9.13793 35.6601 9.14793 35.7101 9.16793 35.7701C9.18793 35.8301 9.19793 35.8801 9.19793 35.9201L9.25793 36.162C9.25793 36.202 9.26793 36.2826 9.28793 36.4039C9.30793 36.5251 9.31793 36.6257 9.31793 36.7057C9.39793 36.947 9.43793 37.1282 9.43793 37.2495C9.43793 37.2895 9.45793 37.3701 9.49793 37.4913C9.53793 37.6126 9.55793 37.6932 9.55793 37.7332C9.63793 37.9744 9.67793 38.1557 9.67793 38.2769C10.1604 39.8469 10.6836 41.175 11.2473 42.2612C11.7298 43.3074 12.4342 44.5149 13.3604 45.8836C13.4004 45.9236 13.5011 46.0642 13.6623 46.3054C13.8236 46.4667 13.9242 46.5873 13.9642 46.6673C14.0042 46.7073 14.0648 46.7779 14.1461 46.8792C14.2273 46.9804 14.2879 47.051 14.3279 47.091C14.3679 47.171 14.4686 47.2916 14.6298 47.4529C14.9923 47.9354 15.4548 48.4185 16.0173 48.9022C16.3798 49.3047 16.8629 49.7472 17.4667 50.2297C17.7892 50.5109 18.2723 50.8934 18.9161 51.3771C20.9686 52.8258 23.0611 53.8921 25.1936 54.5758C25.2336 54.5758 25.2536 54.5958 25.2536 54.6358L25.3736 54.6958C25.4536 54.6958 25.5142 54.7158 25.5554 54.7558C25.6767 54.7558 25.8173 54.7958 25.9773 54.8758C26.0173 54.8758 26.0779 54.8858 26.1592 54.9058C26.2404 54.9258 26.3011 54.9358 26.3411 54.9358C26.3811 54.9758 26.4417 54.9958 26.5229 54.9958C26.5629 55.0358 26.6236 55.0558 26.7048 55.0558C26.7448 55.0558 26.8054 55.0758 26.8867 55.1158C26.9679 55.1558 27.0286 55.1758 27.0686 55.1758C27.1086 55.1758 27.1792 55.1858 27.2804 55.2058C27.3817 55.2258 27.4523 55.2358 27.4923 55.2358L28.2161 55.4176C29.0611 55.6189 29.9867 55.7595 30.9929 55.8395H31.2348L31.2086 55.8358Z" fill="#FEFEF6" stroke="#00B456" stroke-width="14.5496" mask="url(#path-1-inside-1_286_229)"/>
</g>
</svg>
