<svg width="60" height="60" viewBox="0 0 60 60" fill="none" xmlns="http://www.w3.org/2000/svg">
<mask id="path-1-inside-1_286_244" fill="white">
<path d="M30 0C13.4579 0 0 13.4574 0 29.999C0 46.542 13.4579 60 30 60C46.5416 60 60 46.542 60 29.999C60 13.4574 46.5416 0 30 0ZM56.9098 29.999C56.9098 32.7401 56.4953 35.3846 55.7308 37.8782L40.3823 26.7223L46.274 8.58688C52.7321 13.5067 56.9098 21.2728 56.9098 29.999ZM26.8202 39.2704H33.1798L30 49.0598L26.8202 39.2704ZM25.8203 36.1803L23.2356 28.0601L29.9995 23.0623L36.7639 28.1014L34.1797 36.1803H25.8203ZM22.2357 24.8191L19.0544 15.0257L27.3821 21.0787L22.2357 24.8191ZM22.5842 36.1803H12.288L20.6176 30.1267L22.5842 36.1803ZM32.6174 21.0787L40.9456 15.0251L37.7638 24.8196L32.6174 21.0787ZM39.3824 30.1262L47.7115 36.1803H37.4158L39.3824 30.1262ZM45.422 7.96724L30 19.176L14.578 7.96724C18.9493 4.89874 24.2657 3.09013 30 3.09013C35.7348 3.09013 41.0512 4.89874 45.422 7.96724ZM13.7265 8.58688L19.6177 26.7218L4.26919 37.8772C3.50468 35.3846 3.09023 32.7391 3.09023 29.999C3.09023 21.2728 7.26838 13.5067 13.7265 8.58688ZM4.62026 39.2704H23.5836L29.4191 57.2338C17.964 56.9893 8.25118 49.5708 4.62026 39.2704ZM30.5809 57.2338L36.4159 39.2704H55.3797C51.7483 49.5708 42.036 56.9883 30.5809 57.2338Z"/>
</mask>
<path d="M30 0C13.4579 0 0 13.4574 0 29.999C0 46.542 13.4579 60 30 60C46.5416 60 60 46.542 60 29.999C60 13.4574 46.5416 0 30 0ZM56.9098 29.999C56.9098 32.7401 56.4953 35.3846 55.7308 37.8782L40.3823 26.7223L46.274 8.58688C52.7321 13.5067 56.9098 21.2728 56.9098 29.999ZM26.8202 39.2704H33.1798L30 49.0598L26.8202 39.2704ZM25.8203 36.1803L23.2356 28.0601L29.9995 23.0623L36.7639 28.1014L34.1797 36.1803H25.8203ZM22.2357 24.8191L19.0544 15.0257L27.3821 21.0787L22.2357 24.8191ZM22.5842 36.1803H12.288L20.6176 30.1267L22.5842 36.1803ZM32.6174 21.0787L40.9456 15.0251L37.7638 24.8196L32.6174 21.0787ZM39.3824 30.1262L47.7115 36.1803H37.4158L39.3824 30.1262ZM45.422 7.96724L30 19.176L14.578 7.96724C18.9493 4.89874 24.2657 3.09013 30 3.09013C35.7348 3.09013 41.0512 4.89874 45.422 7.96724ZM13.7265 8.58688L19.6177 26.7218L4.26919 37.8772C3.50468 35.3846 3.09023 32.7391 3.09023 29.999C3.09023 21.2728 7.26838 13.5067 13.7265 8.58688ZM4.62026 39.2704H23.5836L29.4191 57.2338C17.964 56.9893 8.25118 49.5708 4.62026 39.2704ZM30.5809 57.2338L36.4159 39.2704H55.3797C51.7483 49.5708 42.036 56.9883 30.5809 57.2338Z" fill="#FEFEF6"/>
<path d="M55.7308 37.8782L53.5547 40.8722L57.7494 43.9211L59.2695 38.9631L55.7308 37.8782ZM40.3823 26.7223L36.8621 25.5787L36.0314 28.1356L38.2061 29.7162L40.3823 26.7223ZM46.274 8.58688L48.517 5.64266L44.3662 2.48053L42.7539 7.44327L46.274 8.58688ZM26.8202 39.2704V35.5691H21.7264L23.3 40.4138L26.8202 39.2704ZM33.1798 39.2704L36.7 40.4138L38.2736 35.5691H33.1798V39.2704ZM30 49.0598L26.4798 50.2032L30 61.0408L33.5202 50.2032L30 49.0598ZM25.8203 36.1803L22.2935 37.3029L23.1143 39.8815H25.8203V36.1803ZM23.2356 28.0601L21.0361 25.0833L18.905 26.6579L19.7087 29.1828L23.2356 28.0601ZM29.9995 23.0623L32.2106 20.0941L30.0085 18.4537L27.8 20.0855L29.9995 23.0623ZM36.7639 28.1014L40.2892 29.229L41.0943 26.7119L38.975 25.1332L36.7639 28.1014ZM34.1797 36.1803V39.8815H36.8817L37.7049 37.3079L34.1797 36.1803ZM22.2357 24.8191L18.7155 25.9626L20.2898 30.809L24.4118 27.8131L22.2357 24.8191ZM19.0544 15.0257L21.2306 12.0317L12.0142 5.33272L15.5342 16.1691L19.0544 15.0257ZM27.3821 21.0787L29.5581 24.0726L33.6773 21.0788L29.5582 18.0847L27.3821 21.0787ZM22.5842 36.1803V39.8815H27.6783L26.1044 35.0367L22.5842 36.1803ZM12.288 36.1803L10.1121 33.1862L0.899294 39.8815H12.288V36.1803ZM20.6176 30.1267L24.1378 28.9832L22.5635 24.1372L18.4417 27.1327L20.6176 30.1267ZM32.6174 21.0787L30.4413 18.0848L26.3225 21.0786L30.4412 24.0725L32.6174 21.0787ZM40.9456 15.0251L44.4657 16.1687L47.9861 5.33183L38.7694 12.0313L40.9456 15.0251ZM37.7638 24.8196L35.5875 27.8135L39.7095 30.8098L41.284 25.9631L37.7638 24.8196ZM39.3824 30.1262L41.5585 27.1323L37.4365 24.1363L35.8622 28.9827L39.3824 30.1262ZM47.7115 36.1803V39.8815H59.0989L49.8876 33.1863L47.7115 36.1803ZM37.4158 36.1803L33.8956 35.0368L32.3218 39.8815H37.4158V36.1803ZM45.422 7.96724L47.598 10.9612L51.7892 7.91506L47.5487 4.93798L45.422 7.96724ZM30 19.176L27.824 22.17L30 23.7516L32.176 22.17L30 19.176ZM14.578 7.96724L12.4515 4.93787L8.21053 7.91488L12.402 10.9612L14.578 7.96724ZM13.7265 8.58688L17.2466 7.44333L15.6344 2.48047L11.4835 5.64266L13.7265 8.58688ZM19.6177 26.7218L21.7938 29.7158L23.9685 28.1351L23.1379 25.5782L19.6177 26.7218ZM4.26919 37.8772L0.730642 38.9625L2.25102 43.9196L6.44524 40.8712L4.26919 37.8772ZM3.09023 29.999H-0.61101H3.09023ZM4.62026 39.2704V35.5691H-0.6089L1.12954 40.5009L4.62026 39.2704ZM23.5836 39.2704L27.1038 38.1269L26.2729 35.5691H23.5836V39.2704ZM29.4191 57.2338L29.3401 60.9342L34.5489 61.0453L32.9392 56.0902L29.4191 57.2338ZM30.5809 57.2338L27.0607 56.0903L25.4511 61.0458L30.6602 60.9342L30.5809 57.2338ZM36.4159 39.2704V35.5691H33.7265L32.8957 38.1269L36.4159 39.2704ZM55.3797 39.2704L58.8704 40.501L60.6091 35.5691H55.3797V39.2704ZM30 -3.70124C11.4139 -3.70124 -3.70124 11.4132 -3.70124 29.999H3.70124C3.70124 15.5017 15.5019 3.70124 30 3.70124V-3.70124ZM-3.70124 29.999C-3.70124 48.5861 11.4137 63.7012 30 63.7012V56.2988C15.5021 56.2988 3.70124 44.498 3.70124 29.999H-3.70124ZM30 63.7012C48.5858 63.7012 63.7012 48.5861 63.7012 29.999H56.2988C56.2988 44.498 44.4974 56.2988 30 56.2988V63.7012ZM63.7012 29.999C63.7012 11.4132 48.5856 -3.70124 30 -3.70124V3.70124C44.4976 3.70124 56.2988 15.5017 56.2988 29.999H63.7012ZM53.2085 29.999C53.2085 32.3648 52.8511 34.6439 52.1921 36.7933L59.2695 38.9631C60.1395 36.1253 60.611 33.1153 60.611 29.999H53.2085ZM57.9069 34.8843L42.5584 23.7283L38.2061 29.7162L53.5547 40.8722L57.9069 34.8843ZM43.9024 27.8659L49.7942 9.73048L42.7539 7.44327L36.8621 25.5787L43.9024 27.8659ZM44.0311 11.5311C49.614 15.7842 53.2085 22.4819 53.2085 29.999H60.611C60.611 20.0637 55.8502 11.2292 48.517 5.64266L44.0311 11.5311ZM26.8202 42.9716H33.1798V35.5691H26.8202V42.9716ZM29.6596 38.127L26.4798 47.9164L33.5202 50.2032L36.7 40.4138L29.6596 38.127ZM33.5202 47.9164L30.3404 38.127L23.3 40.4138L26.4798 50.2032L33.5202 47.9164ZM29.3472 35.0576L26.7625 26.9375L19.7087 29.1828L22.2935 37.3029L29.3472 35.0576ZM25.4351 31.0369L32.199 26.0391L27.8 20.0855L21.0361 25.0833L25.4351 31.0369ZM27.7884 26.0305L34.5528 31.0696L38.975 25.1332L32.2106 20.0941L27.7884 26.0305ZM33.2386 26.9737L30.6544 35.0526L37.7049 37.3079L40.2892 29.229L33.2386 26.9737ZM34.1797 32.479H25.8203V39.8815H34.1797V32.479ZM25.7559 23.6756L22.5746 13.8822L15.5342 16.1691L18.7155 25.9626L25.7559 23.6756ZM16.8783 18.0196L25.2059 24.0726L29.5582 18.0847L21.2306 12.0317L16.8783 18.0196ZM25.206 18.0847L20.0596 21.8251L24.4118 27.8131L29.5581 24.0726L25.206 18.0847ZM22.5842 32.479H12.288V39.8815H22.5842V32.479ZM14.4639 39.1743L22.7936 33.1208L18.4417 27.1327L10.1121 33.1862L14.4639 39.1743ZM17.0975 31.2703L19.0641 37.3238L26.1044 35.0367L24.1378 28.9832L17.0975 31.2703ZM34.7936 24.0726L43.1218 18.019L38.7694 12.0313L30.4413 18.0848L34.7936 24.0726ZM37.4254 13.8816L34.2436 23.6761L41.284 25.9631L44.4657 16.1687L37.4254 13.8816ZM39.9401 21.8258L34.7937 18.0848L30.4412 24.0725L35.5875 27.8135L39.9401 21.8258ZM37.2062 33.1202L45.5354 39.1742L49.8876 33.1863L41.5585 27.1323L37.2062 33.1202ZM47.7115 32.479H37.4158V39.8815H47.7115V32.479ZM40.9359 37.3238L42.9025 31.2697L35.8622 28.9827L33.8956 35.0368L40.9359 37.3238ZM43.2459 4.97324L27.824 16.182L32.176 22.17L47.598 10.9612L43.2459 4.97324ZM32.176 16.182L16.7541 4.97324L12.402 10.9612L27.824 22.17L32.176 16.182ZM16.7045 10.9966C20.4779 8.34784 25.0567 6.79137 30 6.79137V-0.611113C23.4747 -0.611113 17.4207 1.44964 12.4515 4.93787L16.7045 10.9966ZM30 6.79137C34.9439 6.79137 39.5226 8.34788 43.2953 10.9965L47.5487 4.93798C42.5798 1.4496 36.5258 -0.611113 30 -0.611113V6.79137ZM10.2063 9.73043L16.0976 27.8653L23.1379 25.5782L17.2466 7.44333L10.2063 9.73043ZM17.4417 23.7278L2.09313 34.8832L6.44524 40.8712L21.7938 29.7158L17.4417 23.7278ZM7.80773 36.7919C7.14893 34.6439 6.79147 32.3639 6.79147 29.999H-0.61101C-0.61101 33.1142 -0.13957 36.1253 0.730642 38.9625L7.80773 36.7919ZM6.79147 29.999C6.79147 22.4821 10.3864 15.7843 15.9694 11.5311L11.4835 5.64266C4.15039 11.2291 -0.611009 20.0635 -0.61101 29.999L6.79147 29.999ZM4.62026 42.9716H23.5836V35.5691H4.62026V42.9716ZM20.0635 40.4139L25.8989 58.3773L32.9392 56.0902L27.1038 38.1269L20.0635 40.4139ZM29.498 53.5334C19.6283 53.3228 11.2447 46.9299 8.11098 38.0399L1.12954 40.5009C5.25765 52.2117 16.2997 60.6559 29.3401 60.9342L29.498 53.5334ZM34.1011 58.3772L39.936 40.4138L32.8957 38.1269L27.0607 56.0903L34.1011 58.3772ZM36.4159 42.9716H55.3797V35.5691H36.4159V42.9716ZM51.8891 38.0397C48.7549 46.9297 40.3718 53.3219 30.5016 53.5334L30.6602 60.9342C43.7003 60.6548 54.7417 52.2119 58.8704 40.501L51.8891 38.0397Z" fill="#EDD91F" mask="url(#path-1-inside-1_286_244)"/>
</svg>
