<svg width="56" height="64" viewBox="0 0 56 64" fill="none" xmlns="http://www.w3.org/2000/svg">
<path d="M54.2598 2.00345V26.0029" stroke="#5F5F5F" stroke-width="3.48823" stroke-linecap="round" stroke-linejoin="round"/>
<path d="M13.584 57.4534C17.739 60.3252 22.7357 62 28.111 62C40.0321 62 50.09 53.763 53.2374 42.5004" stroke="#5F5F5F" stroke-width="3.48823" stroke-linecap="round" stroke-linejoin="round"/>
<path d="M1.96387 2.00285V35.0021C1.96387 38.1578 2.48817 41.187 3.45178 44.002" stroke="#5F5F5F" stroke-width="3.48823" stroke-linecap="round" stroke-linejoin="round"/>
<path d="M45.5454 2.00304V34.1024C45.5454 44.5403 37.7406 53.002 28.113 53.002C18.4854 53.002 10.6807 44.5403 10.6807 34.1024V26.0025" stroke="#5F5F5F" stroke-width="3.48823" stroke-linecap="round" stroke-linejoin="round"/>
<path d="M10.6807 2.00026V14" stroke="#5F5F5F" stroke-width="3.48823" stroke-linecap="round" stroke-linejoin="round"/>
<path d="M19.3965 2.00285V34.5522C19.3965 39.7711 23.2987 44.002 28.1127 44.002C30.6267 44.002 32.892 42.848 34.483 41.002" stroke="#5F5F5F" stroke-width="3.48823" stroke-linecap="round" stroke-linejoin="round"/>
<path d="M36.8311 2.00247V26.002" stroke="#5F5F5F" stroke-width="3.48823" stroke-linecap="round" stroke-linejoin="round"/>
<path d="M28.1133 2.00218V12.502" stroke="#5F5F5F" stroke-width="3.48823" stroke-linecap="round" stroke-linejoin="round"/>
<path d="M28.1133 35V26.0002" stroke="#5F5F5F" stroke-width="3.48823" stroke-linecap="round" stroke-linejoin="round"/>
</svg>
