<svg width="69" height="68" viewBox="0 0 69 68" fill="none" xmlns="http://www.w3.org/2000/svg">
<g opacity="0.9" filter="url(#filter0_d_286_229)">
<mask id="path-1-inside-1_286_229" fill="white">
<path d="M62.4917 18.3519C64.0617 22.0543 64.8467 25.9373 64.8467 30.0009C64.8467 34.0646 64.0617 37.9676 62.4917 41.7099C60.9629 45.2511 58.8304 48.4097 56.0942 51.1859C53.3179 54.0033 50.1386 56.1564 46.5561 57.6451C42.8136 59.215 38.9104 60 34.8467 60C30.7829 60 26.8998 59.215 23.1973 57.6451C19.6561 56.1564 16.4767 54.0033 13.6592 51.1859C10.9629 48.5297 8.83043 45.3711 7.26168 41.7099C5.65168 37.8876 4.84668 33.9846 4.84668 30.0009C4.84668 26.0173 5.65168 22.1343 7.26168 18.3519C8.83168 14.6095 10.9642 11.4303 13.6592 8.8141C16.4767 5.99669 19.6561 3.84363 23.1973 2.35493C27.0198 0.784976 30.9029 0 34.8467 0C38.7504 0 42.6536 0.784976 46.5561 2.35493C50.1373 3.84363 53.3167 5.99669 56.0942 8.8141C58.8304 11.5503 60.9629 14.7295 62.4917 18.3519ZM34.5448 4.16612C27.7036 4.12612 21.8986 6.3898 17.1298 10.9572C12.3611 15.5245 9.6748 21.1481 9.07105 27.8279H9.13105V27.466L9.19105 27.2841V27.1642L9.31105 26.5004L9.43105 26.1386L9.49105 25.8367C9.57105 25.5142 9.63168 25.293 9.67293 25.173C9.67293 25.133 9.68293 25.0723 9.70293 24.9911C9.72293 24.9098 9.73293 24.8492 9.73293 24.8092L9.85293 24.5074L9.91293 24.1455C9.95293 24.1055 9.97293 24.0655 9.97293 24.0255C10.0129 23.9455 10.0329 23.8849 10.0329 23.8436C10.6767 22.0324 11.4411 20.3625 12.3261 18.8338C13.1711 17.4251 14.3179 15.9764 15.7667 14.4877C17.0142 13.2402 18.4829 12.0934 20.1729 11.0472C21.6217 10.1222 23.3117 9.31721 25.2429 8.63223C25.3229 8.59223 25.4336 8.55223 25.5748 8.51223C25.7161 8.47224 25.8267 8.45224 25.9067 8.45224C25.9467 8.45224 26.0073 8.43224 26.0886 8.39224C26.1698 8.35224 26.2304 8.33224 26.2704 8.33224L26.6323 8.27224C26.7536 8.23224 26.9748 8.17162 27.2961 8.09037L28.0198 7.9085C28.1411 7.9085 28.2417 7.8885 28.3217 7.8485L28.6836 7.78851C28.7636 7.78851 28.8842 7.77851 29.0454 7.75851C29.2067 7.73851 29.3273 7.72851 29.4073 7.72851L30.1311 7.66851C30.1711 7.66851 30.2317 7.64851 30.3129 7.60851H30.7967C30.8767 7.60851 30.9973 7.59851 31.1586 7.57851C31.3198 7.55851 31.4404 7.54851 31.5204 7.54851H32.2442C32.3242 7.54851 32.4448 7.55851 32.6061 7.57851C32.7673 7.59851 32.8879 7.60851 32.9679 7.60851H33.2698C33.4311 7.60851 33.5517 7.62851 33.6317 7.66851C33.9942 7.66851 34.4567 7.70851 35.0192 7.78851C35.0992 7.82851 35.2198 7.8485 35.3811 7.8485L35.5629 7.9085H35.7448C35.8248 7.9485 35.9354 7.9885 36.0767 8.0285C36.2179 8.0685 36.3286 8.0885 36.4086 8.0885H36.6504C36.6904 8.1285 36.7304 8.1485 36.7704 8.1485C36.8104 8.1485 36.8604 8.1585 36.9204 8.17849C36.9804 8.19849 37.0304 8.20849 37.0704 8.20849C37.1104 8.20849 37.1711 8.22849 37.2523 8.26849C37.3336 8.30849 37.3942 8.32849 37.4342 8.32849H37.6161L37.7361 8.38849C38.0586 8.46849 38.2798 8.54911 38.3998 8.63036H38.5817L38.7636 8.69035C38.9248 8.77035 39.0254 8.81035 39.0654 8.81035C39.2267 8.89035 39.3473 8.93035 39.4273 8.93035L39.5473 8.99034L39.7292 9.05034C39.7692 9.09034 39.8598 9.14034 40.0011 9.20034C40.1423 9.26034 40.2529 9.31033 40.3329 9.35033L40.6948 9.47033C40.7748 9.55033 40.8754 9.59033 40.9967 9.59033C41.0367 9.63032 41.1373 9.69095 41.2986 9.77219L41.4186 9.83219L41.6004 9.89219C44.8192 11.5821 47.4348 13.8758 49.4473 16.7732C50.4136 18.1419 51.1779 19.5906 51.7404 21.1193C51.8204 21.2806 51.8604 21.3812 51.8604 21.4212C51.9004 21.4612 51.9204 21.5012 51.9204 21.5412C51.9204 21.5812 51.9404 21.6212 51.9804 21.6612C52.0204 21.8224 52.0811 22.0237 52.1623 22.2649C52.1623 22.3049 52.1823 22.3449 52.2223 22.3849L52.2823 22.5049V22.6868L52.3423 22.8068C52.3823 22.8468 52.4223 22.9474 52.4623 23.1087C52.5023 23.2699 52.5223 23.3705 52.5223 23.4105C52.6023 23.6518 52.6423 23.833 52.6423 23.9543C52.6823 24.1155 52.7429 24.3167 52.8242 24.558C52.8242 24.598 52.8342 24.6886 52.8542 24.8298C52.8742 24.9711 52.8842 25.0817 52.8842 25.1617L52.9442 25.2817V25.4017C52.9442 25.4417 52.9642 25.5023 53.0042 25.5836V25.7036C53.2054 27.4335 53.2254 28.9422 53.0642 30.2297C52.9429 31.5571 52.6611 32.9052 52.2186 34.2739C51.8561 35.3201 51.3529 36.447 50.7092 37.6544C49.9854 38.7807 49.3617 39.6656 48.8379 40.3094C48.7579 40.4306 48.5967 40.6119 48.3542 40.8531C48.3142 40.9331 48.2336 41.0337 48.1123 41.155C47.9911 41.2762 47.9104 41.3768 47.8704 41.4568C47.8304 41.5368 47.7498 41.6274 47.6286 41.7287C47.5073 41.8299 47.4067 41.9006 47.3267 41.9406L47.0248 42.1824C46.9848 42.2224 46.9448 42.2724 46.9048 42.3324C46.8648 42.3924 46.8248 42.4424 46.7848 42.4824L46.4829 42.7243C46.4029 42.7643 46.3023 42.8449 46.1811 42.9662C46.1011 43.0062 46.0004 43.0768 45.8792 43.178C45.7579 43.2793 45.6773 43.3499 45.6373 43.3899C45.4761 43.5111 45.2748 43.6518 45.0336 43.8118C44.7923 43.9717 44.5711 44.1124 44.3698 44.2336C44.2898 44.3136 44.2092 44.3536 44.1279 44.3536C44.7717 44.1524 45.5361 43.8305 46.4211 43.388C47.7486 42.7043 48.9354 41.9193 49.9817 41.0331C51.1492 39.9869 52.1348 38.9207 52.9386 37.8344C53.7036 36.7882 54.4279 35.5208 55.1117 34.0321L55.1717 33.9121V33.7921L55.4136 33.3083C55.4136 33.2683 55.4236 33.2183 55.4436 33.1583C55.4636 33.0983 55.4736 33.0483 55.4736 33.0083C55.5136 32.9683 55.5536 32.8877 55.5936 32.7665C55.6336 32.6452 55.6536 32.5646 55.6536 32.5246L55.7136 32.2227L55.8336 31.9809C55.8736 31.9009 55.8936 31.8003 55.8936 31.679C55.8936 31.5578 55.9136 31.4771 55.9536 31.4371C55.9936 31.3971 56.0136 31.3571 56.0136 31.3171V31.1972L56.0736 30.8953C56.1536 30.734 56.1936 30.5728 56.1936 30.4115C56.2336 30.3716 56.2536 30.2909 56.2536 30.1697C56.2536 30.0484 56.2736 29.9478 56.3136 29.8678L56.3736 29.566V29.3241C56.3736 29.2841 56.3936 29.2035 56.4336 29.0822C56.4736 28.961 56.4936 28.8603 56.4936 28.7804V28.2366C56.5336 28.1154 56.5536 27.9341 56.5536 27.6929V27.1492L56.6136 26.8473V26.6054C56.6136 26.3642 56.5936 26.1829 56.5536 26.0617V25.518C56.5536 25.3967 56.5436 25.2155 56.5236 24.9742C56.5036 24.733 56.4936 24.5517 56.4936 24.4305C56.4536 24.3092 56.4336 24.128 56.4336 23.8868C56.3936 23.8468 56.3736 23.7661 56.3736 23.6449L56.3136 23.343C56.3136 23.303 56.3036 23.2224 56.2836 23.1012C56.2636 22.9799 56.2536 22.8793 56.2536 22.7993C56.1736 22.638 56.1336 22.4768 56.1336 22.3156C56.0536 22.0743 56.0136 21.8931 56.0136 21.7718L55.8317 21.2281C55.7917 21.1068 55.7417 20.9456 55.6817 20.7444C55.6217 20.5431 55.5917 20.4225 55.5917 20.3825C55.2692 19.4163 54.9073 18.5307 54.5061 17.7257C53.8623 16.3982 53.1379 15.2114 52.3329 14.1652C52.2929 14.0439 52.1923 13.9033 52.0311 13.7433C51.9511 13.5821 51.8504 13.4415 51.7292 13.3215C51.6892 13.2815 51.6392 13.2208 51.5792 13.1396C51.5192 13.0583 51.4692 12.9977 51.4292 12.9577C51.3892 12.9177 51.3392 12.8471 51.2792 12.7459C51.2192 12.6446 51.1692 12.574 51.1292 12.534C50.9679 12.3727 50.7367 12.1315 50.4354 11.8103C50.1342 11.489 49.9029 11.2478 49.7417 11.0865C49.4192 10.764 48.9361 10.3216 48.2923 9.75907C48.2523 9.71907 48.0411 9.55783 47.6586 9.27534C47.2761 8.99284 46.9842 8.7716 46.7829 8.61161C44.8917 7.28415 42.8192 6.21793 40.5654 5.41296H40.4454L40.3254 5.35296C40.2854 5.31296 40.2248 5.29296 40.1436 5.29296C39.9823 5.21296 39.8617 5.17296 39.7817 5.17296C39.7417 5.17296 39.6811 5.15296 39.5998 5.11297C39.5186 5.07297 39.4579 5.05297 39.4179 5.05297H39.3579C39.2779 5.01297 39.2173 4.99297 39.1761 4.99297C39.1348 4.99297 39.0742 4.97297 38.9942 4.93297C38.9142 4.93297 38.7936 4.89297 38.6323 4.81297C38.5923 4.81297 38.5317 4.80297 38.4504 4.78298C38.3692 4.76298 38.3086 4.75298 38.2686 4.75298L37.5448 4.57111C36.0561 4.28987 35.0498 4.14925 34.5261 4.14925L34.5448 4.16612ZM46.4361 30.0009C46.4361 26.9023 45.3392 24.2667 43.1454 22.0943C40.9517 19.9219 38.3261 18.8357 35.2686 18.8357C32.1698 18.8357 29.5242 19.9219 27.3317 22.0943C25.1392 24.2667 24.0423 26.9023 24.0411 30.0009C24.0398 33.0996 25.1367 35.7351 27.3317 37.9076C29.5267 40.08 32.1723 41.1662 35.2686 41.1662C38.3273 41.1662 40.9529 40.08 43.1454 37.9076C45.3379 35.7351 46.4348 33.0996 46.4361 30.0009ZM35.2086 55.8358C38.5886 55.957 41.8079 55.4139 44.8667 54.2064C47.9254 52.999 50.5511 51.309 52.7436 49.1366C54.9361 46.9642 56.7267 44.4086 58.1154 41.47C59.5042 38.5313 60.3392 35.4326 60.6204 32.174V32.234L60.5604 32.5359V32.7177L60.5004 32.7777V32.8977C60.5004 33.019 60.4604 33.2402 60.3804 33.5615L60.3204 33.8633L60.2604 34.2252C60.2204 34.3464 60.1598 34.5677 60.0786 34.8889C60.0786 34.9289 60.0386 35.0295 59.9586 35.1908L59.7767 35.8545V36.0364L59.7167 36.1564C59.1129 37.9676 58.3279 39.6375 57.3617 41.1662C56.3954 42.7362 55.2486 44.1849 53.9211 45.5123C52.4723 46.961 51.0036 48.1279 49.5148 49.0128C47.9861 49.9791 46.3161 50.764 44.5048 51.3678C44.1823 51.4478 43.9411 51.5284 43.7811 51.6096C43.7411 51.6096 43.6911 51.6196 43.6311 51.6396C43.5711 51.6596 43.5211 51.6696 43.4811 51.6696L43.1192 51.7896C42.7967 51.8696 42.5754 51.9303 42.4554 51.9715C42.2942 51.9715 42.0529 52.0115 41.7317 52.0915C41.6917 52.0915 41.6311 52.1015 41.5498 52.1215C41.4686 52.1415 41.4079 52.1515 41.3679 52.1515L41.0061 52.2115C40.8848 52.2115 40.6636 52.2515 40.3423 52.3315C40.0198 52.3315 39.7786 52.3515 39.6186 52.3915H38.8948C38.7336 52.4315 38.4923 52.4515 38.1711 52.4515H37.5073C37.1848 52.4515 36.9436 52.4315 36.7836 52.3915H36.0598C35.7786 52.3515 35.3161 52.2909 34.6723 52.2096C34.6323 52.2096 34.5717 52.1996 34.4904 52.1796C34.4092 52.1596 34.3486 52.1496 34.3086 52.1496H34.1267C34.0867 52.1096 34.0467 52.0896 34.0067 52.0896C33.9267 52.0496 33.8061 52.0296 33.6448 52.0296C33.4836 52.0296 33.3629 52.0096 33.2829 51.9696L33.1629 51.9096H32.9811C32.9411 51.9096 32.8804 51.8896 32.7992 51.8496C32.7179 51.8096 32.6573 51.7896 32.6173 51.7896C32.5773 51.7896 32.5273 51.7796 32.4673 51.7596C32.4073 51.7396 32.3573 51.7296 32.3173 51.7296L31.9554 51.6096C31.8754 51.5696 31.7648 51.5296 31.6236 51.4896C31.4823 51.4496 31.3717 51.4296 31.2917 51.4296L31.1098 51.3696L30.9898 51.3096C30.9498 51.3096 30.8892 51.2896 30.8079 51.2496C30.7267 51.2097 30.6661 51.1897 30.6261 51.1897C30.5861 51.1497 30.5461 51.1297 30.5061 51.1297C30.4661 51.1297 30.4361 51.1197 30.4161 51.0997C30.3961 51.0797 30.3661 51.0697 30.3261 51.0697L30.1442 51.0097L30.0242 50.9497C29.9442 50.9497 29.8336 50.9197 29.6923 50.8597C29.5511 50.7997 29.4404 50.7497 29.3604 50.7097L29.2404 50.6497L29.0586 50.5297C29.0186 50.5297 28.9179 50.4897 28.7567 50.4097C28.5954 50.3297 28.4948 50.2897 28.4548 50.2897L28.2729 50.1697L28.1529 50.1097C24.9342 48.4997 22.3186 46.2061 20.3061 43.2287C19.3398 41.8599 18.5548 40.4112 17.9511 38.8825L17.8311 38.6407C17.8311 38.6007 17.8111 38.54 17.7711 38.4588V38.3388C17.6911 38.2176 17.6104 38.0363 17.5292 37.7951C17.5292 37.7551 17.5192 37.7051 17.4992 37.6451C17.4792 37.5851 17.4692 37.5351 17.4692 37.4951C17.4292 37.4551 17.4092 37.4151 17.4092 37.3751V37.3151C17.3292 37.1538 17.2892 37.0532 17.2892 37.0132C17.2892 36.9732 17.2792 36.9232 17.2592 36.8632C17.2392 36.8032 17.2292 36.7532 17.2292 36.7132L17.0473 36.1695C17.0073 36.0083 16.9467 35.807 16.8654 35.5658C16.8654 35.4858 16.8254 35.2845 16.7454 34.962C16.7454 34.8408 16.7054 34.6595 16.6254 34.4183V34.1164C16.5854 34.0364 16.5654 33.9358 16.5654 33.8146C16.3642 32.0846 16.3442 30.5959 16.5054 29.3485C16.6267 27.9398 16.9086 26.5917 17.3511 25.3042C17.7936 23.9355 18.2967 22.8087 18.8604 21.9237C19.5042 20.8375 20.1279 19.9319 20.7317 19.2069C20.8117 19.0857 20.9729 18.9044 21.2154 18.6632C21.2554 18.6232 21.3261 18.5425 21.4273 18.4213C21.5286 18.3001 21.6192 18.1994 21.6992 18.1194L22.2429 17.5757L22.5448 17.3338L22.7867 17.092L23.0886 16.8501C23.1286 16.7701 23.2292 16.6895 23.3904 16.6082C23.4704 16.5682 23.5711 16.4976 23.6923 16.3964C23.8136 16.2951 23.8942 16.2045 23.9342 16.1245C24.1754 16.0033 24.3767 15.8626 24.5379 15.7026C24.6179 15.6626 24.7286 15.602 24.8698 15.5208C25.0111 15.4395 25.1217 15.3789 25.2017 15.3389C25.2817 15.2589 25.3623 15.1983 25.4436 15.157C24.3973 15.5595 23.6329 15.8814 23.1504 16.1226C21.7817 16.8463 20.5948 17.6513 19.5898 18.5375C18.4636 19.4625 17.4779 20.5087 16.6329 21.6762C15.7879 22.8837 15.0636 24.1511 14.4598 25.4786C14.4598 25.5186 14.4398 25.5586 14.3998 25.5986V25.7186L14.2798 26.0204L14.1598 26.2623C14.1598 26.3023 14.1498 26.3423 14.1298 26.3823C14.1098 26.4223 14.0998 26.4623 14.0998 26.5023L13.9179 27.046L13.7979 27.2879L13.7379 27.5298C13.6579 27.771 13.6179 27.9523 13.6179 28.0735L13.5579 28.1935V28.3754L13.4979 28.6172C13.4179 28.8585 13.3779 29.0397 13.3779 29.161C13.2979 29.4022 13.2579 29.5835 13.2579 29.7047L13.1979 29.9466C13.1979 30.0678 13.1779 30.1684 13.1379 30.2484C13.1379 30.4897 13.1179 30.6709 13.0779 30.7922C13.0779 31.0334 13.0579 31.2146 13.0179 31.3359V31.8796C13.0179 32.1209 12.9979 32.3021 12.9579 32.4234V33.7508C12.9579 33.7908 12.9679 33.8408 12.9879 33.9008C13.0079 33.9608 13.0179 34.0108 13.0179 34.0508C13.0179 34.5333 13.0379 34.8752 13.0779 35.0764C13.1179 35.1977 13.1379 35.3789 13.1379 35.6201C13.1379 35.6601 13.1479 35.7101 13.1679 35.7701C13.1879 35.8301 13.1979 35.8801 13.1979 35.9201L13.2579 36.162C13.2579 36.202 13.2679 36.2826 13.2879 36.4039C13.3079 36.5251 13.3179 36.6257 13.3179 36.7057C13.3979 36.947 13.4379 37.1282 13.4379 37.2495C13.4379 37.2895 13.4579 37.3701 13.4979 37.4913C13.5379 37.6126 13.5579 37.6932 13.5579 37.7332C13.6379 37.9744 13.6779 38.1557 13.6779 38.2769C14.1604 39.8469 14.6836 41.175 15.2473 42.2612C15.7298 43.3074 16.4342 44.5149 17.3604 45.8836C17.4004 45.9236 17.5011 46.0642 17.6623 46.3054C17.8236 46.4667 17.9242 46.5873 17.9642 46.6673C18.0042 46.7073 18.0648 46.7779 18.1461 46.8792C18.2273 46.9804 18.2879 47.051 18.3279 47.091C18.3679 47.171 18.4686 47.2916 18.6298 47.4529C18.9923 47.9354 19.4548 48.4185 20.0173 48.9022C20.3798 49.3047 20.8629 49.7472 21.4667 50.2297C21.7892 50.5109 22.2723 50.8934 22.9161 51.3771C24.9686 52.8258 27.0611 53.8921 29.1936 54.5758C29.2336 54.5758 29.2536 54.5958 29.2536 54.6358L29.3736 54.6958C29.4536 54.6958 29.5142 54.7158 29.5554 54.7558C29.6767 54.7558 29.8173 54.7958 29.9773 54.8758C30.0173 54.8758 30.0779 54.8858 30.1592 54.9058C30.2404 54.9258 30.3011 54.9358 30.3411 54.9358C30.3811 54.9758 30.4417 54.9958 30.5229 54.9958C30.5629 55.0358 30.6236 55.0558 30.7048 55.0558C30.7448 55.0558 30.8054 55.0758 30.8867 55.1158C30.9679 55.1558 31.0286 55.1758 31.0686 55.1758C31.1086 55.1758 31.1792 55.1858 31.2804 55.2058C31.3817 55.2258 31.4523 55.2358 31.4923 55.2358L32.2161 55.4176C33.0611 55.6189 33.9867 55.7595 34.9929 55.8395H35.2348L35.2086 55.8358Z"/>
</mask>
<path d="M62.4917 18.3519C64.0617 22.0543 64.8467 25.9373 64.8467 30.0009C64.8467 34.0646 64.0617 37.9676 62.4917 41.7099C60.9629 45.2511 58.8304 48.4097 56.0942 51.1859C53.3179 54.0033 50.1386 56.1564 46.5561 57.6451C42.8136 59.215 38.9104 60 34.8467 60C30.7829 60 26.8998 59.215 23.1973 57.6451C19.6561 56.1564 16.4767 54.0033 13.6592 51.1859C10.9629 48.5297 8.83043 45.3711 7.26168 41.7099C5.65168 37.8876 4.84668 33.9846 4.84668 30.0009C4.84668 26.0173 5.65168 22.1343 7.26168 18.3519C8.83168 14.6095 10.9642 11.4303 13.6592 8.8141C16.4767 5.99669 19.6561 3.84363 23.1973 2.35493C27.0198 0.784976 30.9029 0 34.8467 0C38.7504 0 42.6536 0.784976 46.5561 2.35493C50.1373 3.84363 53.3167 5.99669 56.0942 8.8141C58.8304 11.5503 60.9629 14.7295 62.4917 18.3519ZM34.5448 4.16612C27.7036 4.12612 21.8986 6.3898 17.1298 10.9572C12.3611 15.5245 9.6748 21.1481 9.07105 27.8279H9.13105V27.466L9.19105 27.2841V27.1642L9.31105 26.5004L9.43105 26.1386L9.49105 25.8367C9.57105 25.5142 9.63168 25.293 9.67293 25.173C9.67293 25.133 9.68293 25.0723 9.70293 24.9911C9.72293 24.9098 9.73293 24.8492 9.73293 24.8092L9.85293 24.5074L9.91293 24.1455C9.95293 24.1055 9.97293 24.0655 9.97293 24.0255C10.0129 23.9455 10.0329 23.8849 10.0329 23.8436C10.6767 22.0324 11.4411 20.3625 12.3261 18.8338C13.1711 17.4251 14.3179 15.9764 15.7667 14.4877C17.0142 13.2402 18.4829 12.0934 20.1729 11.0472C21.6217 10.1222 23.3117 9.31721 25.2429 8.63223C25.3229 8.59223 25.4336 8.55223 25.5748 8.51223C25.7161 8.47224 25.8267 8.45224 25.9067 8.45224C25.9467 8.45224 26.0073 8.43224 26.0886 8.39224C26.1698 8.35224 26.2304 8.33224 26.2704 8.33224L26.6323 8.27224C26.7536 8.23224 26.9748 8.17162 27.2961 8.09037L28.0198 7.9085C28.1411 7.9085 28.2417 7.8885 28.3217 7.8485L28.6836 7.78851C28.7636 7.78851 28.8842 7.77851 29.0454 7.75851C29.2067 7.73851 29.3273 7.72851 29.4073 7.72851L30.1311 7.66851C30.1711 7.66851 30.2317 7.64851 30.3129 7.60851H30.7967C30.8767 7.60851 30.9973 7.59851 31.1586 7.57851C31.3198 7.55851 31.4404 7.54851 31.5204 7.54851H32.2442C32.3242 7.54851 32.4448 7.55851 32.6061 7.57851C32.7673 7.59851 32.8879 7.60851 32.9679 7.60851H33.2698C33.4311 7.60851 33.5517 7.62851 33.6317 7.66851C33.9942 7.66851 34.4567 7.70851 35.0192 7.78851C35.0992 7.82851 35.2198 7.8485 35.3811 7.8485L35.5629 7.9085H35.7448C35.8248 7.9485 35.9354 7.9885 36.0767 8.0285C36.2179 8.0685 36.3286 8.0885 36.4086 8.0885H36.6504C36.6904 8.1285 36.7304 8.1485 36.7704 8.1485C36.8104 8.1485 36.8604 8.1585 36.9204 8.17849C36.9804 8.19849 37.0304 8.20849 37.0704 8.20849C37.1104 8.20849 37.1711 8.22849 37.2523 8.26849C37.3336 8.30849 37.3942 8.32849 37.4342 8.32849H37.6161L37.7361 8.38849C38.0586 8.46849 38.2798 8.54911 38.3998 8.63036H38.5817L38.7636 8.69035C38.9248 8.77035 39.0254 8.81035 39.0654 8.81035C39.2267 8.89035 39.3473 8.93035 39.4273 8.93035L39.5473 8.99034L39.7292 9.05034C39.7692 9.09034 39.8598 9.14034 40.0011 9.20034C40.1423 9.26034 40.2529 9.31033 40.3329 9.35033L40.6948 9.47033C40.7748 9.55033 40.8754 9.59033 40.9967 9.59033C41.0367 9.63032 41.1373 9.69095 41.2986 9.77219L41.4186 9.83219L41.6004 9.89219C44.8192 11.5821 47.4348 13.8758 49.4473 16.7732C50.4136 18.1419 51.1779 19.5906 51.7404 21.1193C51.8204 21.2806 51.8604 21.3812 51.8604 21.4212C51.9004 21.4612 51.9204 21.5012 51.9204 21.5412C51.9204 21.5812 51.9404 21.6212 51.9804 21.6612C52.0204 21.8224 52.0811 22.0237 52.1623 22.2649C52.1623 22.3049 52.1823 22.3449 52.2223 22.3849L52.2823 22.5049V22.6868L52.3423 22.8068C52.3823 22.8468 52.4223 22.9474 52.4623 23.1087C52.5023 23.2699 52.5223 23.3705 52.5223 23.4105C52.6023 23.6518 52.6423 23.833 52.6423 23.9543C52.6823 24.1155 52.7429 24.3167 52.8242 24.558C52.8242 24.598 52.8342 24.6886 52.8542 24.8298C52.8742 24.9711 52.8842 25.0817 52.8842 25.1617L52.9442 25.2817V25.4017C52.9442 25.4417 52.9642 25.5023 53.0042 25.5836V25.7036C53.2054 27.4335 53.2254 28.9422 53.0642 30.2297C52.9429 31.5571 52.6611 32.9052 52.2186 34.2739C51.8561 35.3201 51.3529 36.447 50.7092 37.6544C49.9854 38.7807 49.3617 39.6656 48.8379 40.3094C48.7579 40.4306 48.5967 40.6119 48.3542 40.8531C48.3142 40.9331 48.2336 41.0337 48.1123 41.155C47.9911 41.2762 47.9104 41.3768 47.8704 41.4568C47.8304 41.5368 47.7498 41.6274 47.6286 41.7287C47.5073 41.8299 47.4067 41.9006 47.3267 41.9406L47.0248 42.1824C46.9848 42.2224 46.9448 42.2724 46.9048 42.3324C46.8648 42.3924 46.8248 42.4424 46.7848 42.4824L46.4829 42.7243C46.4029 42.7643 46.3023 42.8449 46.1811 42.9662C46.1011 43.0062 46.0004 43.0768 45.8792 43.178C45.7579 43.2793 45.6773 43.3499 45.6373 43.3899C45.4761 43.5111 45.2748 43.6518 45.0336 43.8118C44.7923 43.9717 44.5711 44.1124 44.3698 44.2336C44.2898 44.3136 44.2092 44.3536 44.1279 44.3536C44.7717 44.1524 45.5361 43.8305 46.4211 43.388C47.7486 42.7043 48.9354 41.9193 49.9817 41.0331C51.1492 39.9869 52.1348 38.9207 52.9386 37.8344C53.7036 36.7882 54.4279 35.5208 55.1117 34.0321L55.1717 33.9121V33.7921L55.4136 33.3083C55.4136 33.2683 55.4236 33.2183 55.4436 33.1583C55.4636 33.0983 55.4736 33.0483 55.4736 33.0083C55.5136 32.9683 55.5536 32.8877 55.5936 32.7665C55.6336 32.6452 55.6536 32.5646 55.6536 32.5246L55.7136 32.2227L55.8336 31.9809C55.8736 31.9009 55.8936 31.8003 55.8936 31.679C55.8936 31.5578 55.9136 31.4771 55.9536 31.4371C55.9936 31.3971 56.0136 31.3571 56.0136 31.3171V31.1972L56.0736 30.8953C56.1536 30.734 56.1936 30.5728 56.1936 30.4115C56.2336 30.3716 56.2536 30.2909 56.2536 30.1697C56.2536 30.0484 56.2736 29.9478 56.3136 29.8678L56.3736 29.566V29.3241C56.3736 29.2841 56.3936 29.2035 56.4336 29.0822C56.4736 28.961 56.4936 28.8603 56.4936 28.7804V28.2366C56.5336 28.1154 56.5536 27.9341 56.5536 27.6929V27.1492L56.6136 26.8473V26.6054C56.6136 26.3642 56.5936 26.1829 56.5536 26.0617V25.518C56.5536 25.3967 56.5436 25.2155 56.5236 24.9742C56.5036 24.733 56.4936 24.5517 56.4936 24.4305C56.4536 24.3092 56.4336 24.128 56.4336 23.8868C56.3936 23.8468 56.3736 23.7661 56.3736 23.6449L56.3136 23.343C56.3136 23.303 56.3036 23.2224 56.2836 23.1012C56.2636 22.9799 56.2536 22.8793 56.2536 22.7993C56.1736 22.638 56.1336 22.4768 56.1336 22.3156C56.0536 22.0743 56.0136 21.8931 56.0136 21.7718L55.8317 21.2281C55.7917 21.1068 55.7417 20.9456 55.6817 20.7444C55.6217 20.5431 55.5917 20.4225 55.5917 20.3825C55.2692 19.4163 54.9073 18.5307 54.5061 17.7257C53.8623 16.3982 53.1379 15.2114 52.3329 14.1652C52.2929 14.0439 52.1923 13.9033 52.0311 13.7433C51.9511 13.5821 51.8504 13.4415 51.7292 13.3215C51.6892 13.2815 51.6392 13.2208 51.5792 13.1396C51.5192 13.0583 51.4692 12.9977 51.4292 12.9577C51.3892 12.9177 51.3392 12.8471 51.2792 12.7459C51.2192 12.6446 51.1692 12.574 51.1292 12.534C50.9679 12.3727 50.7367 12.1315 50.4354 11.8103C50.1342 11.489 49.9029 11.2478 49.7417 11.0865C49.4192 10.764 48.9361 10.3216 48.2923 9.75907C48.2523 9.71907 48.0411 9.55783 47.6586 9.27534C47.2761 8.99284 46.9842 8.7716 46.7829 8.61161C44.8917 7.28415 42.8192 6.21793 40.5654 5.41296H40.4454L40.3254 5.35296C40.2854 5.31296 40.2248 5.29296 40.1436 5.29296C39.9823 5.21296 39.8617 5.17296 39.7817 5.17296C39.7417 5.17296 39.6811 5.15296 39.5998 5.11297C39.5186 5.07297 39.4579 5.05297 39.4179 5.05297H39.3579C39.2779 5.01297 39.2173 4.99297 39.1761 4.99297C39.1348 4.99297 39.0742 4.97297 38.9942 4.93297C38.9142 4.93297 38.7936 4.89297 38.6323 4.81297C38.5923 4.81297 38.5317 4.80297 38.4504 4.78298C38.3692 4.76298 38.3086 4.75298 38.2686 4.75298L37.5448 4.57111C36.0561 4.28987 35.0498 4.14925 34.5261 4.14925L34.5448 4.16612ZM46.4361 30.0009C46.4361 26.9023 45.3392 24.2667 43.1454 22.0943C40.9517 19.9219 38.3261 18.8357 35.2686 18.8357C32.1698 18.8357 29.5242 19.9219 27.3317 22.0943C25.1392 24.2667 24.0423 26.9023 24.0411 30.0009C24.0398 33.0996 25.1367 35.7351 27.3317 37.9076C29.5267 40.08 32.1723 41.1662 35.2686 41.1662C38.3273 41.1662 40.9529 40.08 43.1454 37.9076C45.3379 35.7351 46.4348 33.0996 46.4361 30.0009ZM35.2086 55.8358C38.5886 55.957 41.8079 55.4139 44.8667 54.2064C47.9254 52.999 50.5511 51.309 52.7436 49.1366C54.9361 46.9642 56.7267 44.4086 58.1154 41.47C59.5042 38.5313 60.3392 35.4326 60.6204 32.174V32.234L60.5604 32.5359V32.7177L60.5004 32.7777V32.8977C60.5004 33.019 60.4604 33.2402 60.3804 33.5615L60.3204 33.8633L60.2604 34.2252C60.2204 34.3464 60.1598 34.5677 60.0786 34.8889C60.0786 34.9289 60.0386 35.0295 59.9586 35.1908L59.7767 35.8545V36.0364L59.7167 36.1564C59.1129 37.9676 58.3279 39.6375 57.3617 41.1662C56.3954 42.7362 55.2486 44.1849 53.9211 45.5123C52.4723 46.961 51.0036 48.1279 49.5148 49.0128C47.9861 49.9791 46.3161 50.764 44.5048 51.3678C44.1823 51.4478 43.9411 51.5284 43.7811 51.6096C43.7411 51.6096 43.6911 51.6196 43.6311 51.6396C43.5711 51.6596 43.5211 51.6696 43.4811 51.6696L43.1192 51.7896C42.7967 51.8696 42.5754 51.9303 42.4554 51.9715C42.2942 51.9715 42.0529 52.0115 41.7317 52.0915C41.6917 52.0915 41.6311 52.1015 41.5498 52.1215C41.4686 52.1415 41.4079 52.1515 41.3679 52.1515L41.0061 52.2115C40.8848 52.2115 40.6636 52.2515 40.3423 52.3315C40.0198 52.3315 39.7786 52.3515 39.6186 52.3915H38.8948C38.7336 52.4315 38.4923 52.4515 38.1711 52.4515H37.5073C37.1848 52.4515 36.9436 52.4315 36.7836 52.3915H36.0598C35.7786 52.3515 35.3161 52.2909 34.6723 52.2096C34.6323 52.2096 34.5717 52.1996 34.4904 52.1796C34.4092 52.1596 34.3486 52.1496 34.3086 52.1496H34.1267C34.0867 52.1096 34.0467 52.0896 34.0067 52.0896C33.9267 52.0496 33.8061 52.0296 33.6448 52.0296C33.4836 52.0296 33.3629 52.0096 33.2829 51.9696L33.1629 51.9096H32.9811C32.9411 51.9096 32.8804 51.8896 32.7992 51.8496C32.7179 51.8096 32.6573 51.7896 32.6173 51.7896C32.5773 51.7896 32.5273 51.7796 32.4673 51.7596C32.4073 51.7396 32.3573 51.7296 32.3173 51.7296L31.9554 51.6096C31.8754 51.5696 31.7648 51.5296 31.6236 51.4896C31.4823 51.4496 31.3717 51.4296 31.2917 51.4296L31.1098 51.3696L30.9898 51.3096C30.9498 51.3096 30.8892 51.2896 30.8079 51.2496C30.7267 51.2097 30.6661 51.1897 30.6261 51.1897C30.5861 51.1497 30.5461 51.1297 30.5061 51.1297C30.4661 51.1297 30.4361 51.1197 30.4161 51.0997C30.3961 51.0797 30.3661 51.0697 30.3261 51.0697L30.1442 51.0097L30.0242 50.9497C29.9442 50.9497 29.8336 50.9197 29.6923 50.8597C29.5511 50.7997 29.4404 50.7497 29.3604 50.7097L29.2404 50.6497L29.0586 50.5297C29.0186 50.5297 28.9179 50.4897 28.7567 50.4097C28.5954 50.3297 28.4948 50.2897 28.4548 50.2897L28.2729 50.1697L28.1529 50.1097C24.9342 48.4997 22.3186 46.2061 20.3061 43.2287C19.3398 41.8599 18.5548 40.4112 17.9511 38.8825L17.8311 38.6407C17.8311 38.6007 17.8111 38.54 17.7711 38.4588V38.3388C17.6911 38.2176 17.6104 38.0363 17.5292 37.7951C17.5292 37.7551 17.5192 37.7051 17.4992 37.6451C17.4792 37.5851 17.4692 37.5351 17.4692 37.4951C17.4292 37.4551 17.4092 37.4151 17.4092 37.3751V37.3151C17.3292 37.1538 17.2892 37.0532 17.2892 37.0132C17.2892 36.9732 17.2792 36.9232 17.2592 36.8632C17.2392 36.8032 17.2292 36.7532 17.2292 36.7132L17.0473 36.1695C17.0073 36.0083 16.9467 35.807 16.8654 35.5658C16.8654 35.4858 16.8254 35.2845 16.7454 34.962C16.7454 34.8408 16.7054 34.6595 16.6254 34.4183V34.1164C16.5854 34.0364 16.5654 33.9358 16.5654 33.8146C16.3642 32.0846 16.3442 30.5959 16.5054 29.3485C16.6267 27.9398 16.9086 26.5917 17.3511 25.3042C17.7936 23.9355 18.2967 22.8087 18.8604 21.9237C19.5042 20.8375 20.1279 19.9319 20.7317 19.2069C20.8117 19.0857 20.9729 18.9044 21.2154 18.6632C21.2554 18.6232 21.3261 18.5425 21.4273 18.4213C21.5286 18.3001 21.6192 18.1994 21.6992 18.1194L22.2429 17.5757L22.5448 17.3338L22.7867 17.092L23.0886 16.8501C23.1286 16.7701 23.2292 16.6895 23.3904 16.6082C23.4704 16.5682 23.5711 16.4976 23.6923 16.3964C23.8136 16.2951 23.8942 16.2045 23.9342 16.1245C24.1754 16.0033 24.3767 15.8626 24.5379 15.7026C24.6179 15.6626 24.7286 15.602 24.8698 15.5208C25.0111 15.4395 25.1217 15.3789 25.2017 15.3389C25.2817 15.2589 25.3623 15.1983 25.4436 15.157C24.3973 15.5595 23.6329 15.8814 23.1504 16.1226C21.7817 16.8463 20.5948 17.6513 19.5898 18.5375C18.4636 19.4625 17.4779 20.5087 16.6329 21.6762C15.7879 22.8837 15.0636 24.1511 14.4598 25.4786C14.4598 25.5186 14.4398 25.5586 14.3998 25.5986V25.7186L14.2798 26.0204L14.1598 26.2623C14.1598 26.3023 14.1498 26.3423 14.1298 26.3823C14.1098 26.4223 14.0998 26.4623 14.0998 26.5023L13.9179 27.046L13.7979 27.2879L13.7379 27.5298C13.6579 27.771 13.6179 27.9523 13.6179 28.0735L13.5579 28.1935V28.3754L13.4979 28.6172C13.4179 28.8585 13.3779 29.0397 13.3779 29.161C13.2979 29.4022 13.2579 29.5835 13.2579 29.7047L13.1979 29.9466C13.1979 30.0678 13.1779 30.1684 13.1379 30.2484C13.1379 30.4897 13.1179 30.6709 13.0779 30.7922C13.0779 31.0334 13.0579 31.2146 13.0179 31.3359V31.8796C13.0179 32.1209 12.9979 32.3021 12.9579 32.4234V33.7508C12.9579 33.7908 12.9679 33.8408 12.9879 33.9008C13.0079 33.9608 13.0179 34.0108 13.0179 34.0508C13.0179 34.5333 13.0379 34.8752 13.0779 35.0764C13.1179 35.1977 13.1379 35.3789 13.1379 35.6201C13.1379 35.6601 13.1479 35.7101 13.1679 35.7701C13.1879 35.8301 13.1979 35.8801 13.1979 35.9201L13.2579 36.162C13.2579 36.202 13.2679 36.2826 13.2879 36.4039C13.3079 36.5251 13.3179 36.6257 13.3179 36.7057C13.3979 36.947 13.4379 37.1282 13.4379 37.2495C13.4379 37.2895 13.4579 37.3701 13.4979 37.4913C13.5379 37.6126 13.5579 37.6932 13.5579 37.7332C13.6379 37.9744 13.6779 38.1557 13.6779 38.2769C14.1604 39.8469 14.6836 41.175 15.2473 42.2612C15.7298 43.3074 16.4342 44.5149 17.3604 45.8836C17.4004 45.9236 17.5011 46.0642 17.6623 46.3054C17.8236 46.4667 17.9242 46.5873 17.9642 46.6673C18.0042 46.7073 18.0648 46.7779 18.1461 46.8792C18.2273 46.9804 18.2879 47.051 18.3279 47.091C18.3679 47.171 18.4686 47.2916 18.6298 47.4529C18.9923 47.9354 19.4548 48.4185 20.0173 48.9022C20.3798 49.3047 20.8629 49.7472 21.4667 50.2297C21.7892 50.5109 22.2723 50.8934 22.9161 51.3771C24.9686 52.8258 27.0611 53.8921 29.1936 54.5758C29.2336 54.5758 29.2536 54.5958 29.2536 54.6358L29.3736 54.6958C29.4536 54.6958 29.5142 54.7158 29.5554 54.7558C29.6767 54.7558 29.8173 54.7958 29.9773 54.8758C30.0173 54.8758 30.0779 54.8858 30.1592 54.9058C30.2404 54.9258 30.3011 54.9358 30.3411 54.9358C30.3811 54.9758 30.4417 54.9958 30.5229 54.9958C30.5629 55.0358 30.6236 55.0558 30.7048 55.0558C30.7448 55.0558 30.8054 55.0758 30.8867 55.1158C30.9679 55.1558 31.0286 55.1758 31.0686 55.1758C31.1086 55.1758 31.1792 55.1858 31.2804 55.2058C31.3817 55.2258 31.4523 55.2358 31.4923 55.2358L32.2161 55.4176C33.0611 55.6189 33.9867 55.7595 34.9929 55.8395H35.2348L35.2086 55.8358Z" fill="#5F5F5F" stroke="#5F5F5F" stroke-width="14.5496" mask="url(#path-1-inside-1_286_229)"/>
</g>
<defs>
<filter id="filter0_d_286_229" x="0.84668" y="0" width="68" height="68" filterUnits="userSpaceOnUse" color-interpolation-filters="sRGB">
<feFlood flood-opacity="0" result="BackgroundImageFix"/>
<feColorMatrix in="SourceAlpha" type="matrix" values="0 0 0 0 0 0 0 0 0 0 0 0 0 0 0 0 0 0 127 0" result="hardAlpha"/>
<feOffset dy="4"/>
<feGaussianBlur stdDeviation="2"/>
<feComposite in2="hardAlpha" operator="out"/>
<feColorMatrix type="matrix" values="0 0 0 0 0 0 0 0 0 0 0 0 0 0 0 0 0 0 0.25 0"/>
<feBlend mode="normal" in2="BackgroundImageFix" result="effect1_dropShadow_286_229"/>
<feBlend mode="normal" in="SourceGraphic" in2="effect1_dropShadow_286_229" result="shape"/>
</filter>
</defs>
</svg>
