<svg width="56" height="64" viewBox="0 0 56 64" fill="none" xmlns="http://www.w3.org/2000/svg">
<path d="M54.2617 2.00345V26.0029" stroke="#FEFEF6" stroke-width="3.48823" stroke-linecap="round" stroke-linejoin="round"/>
<path d="M13.584 57.4534C17.739 60.3252 22.7357 62 28.111 62C40.0321 62 50.09 53.763 53.2374 42.5004" stroke="#FEFEF6" stroke-width="3.48823" stroke-linecap="round" stroke-linejoin="round"/>
<path d="M1.96484 2.00285V35.0021C1.96484 38.1578 2.48915 41.187 3.45275 44.002" stroke="#FEFEF6" stroke-width="3.48823" stroke-linecap="round" stroke-linejoin="round"/>
<path d="M45.5464 2.00304V34.1024C45.5464 44.5403 37.7416 53.002 28.114 53.002C18.4864 53.002 10.6816 44.5403 10.6816 34.1024V26.0025" stroke="#FEFEF6" stroke-width="3.48823" stroke-linecap="round" stroke-linejoin="round"/>
<path d="M10.6816 2.00026V14" stroke="#FEFEF6" stroke-width="3.48823" stroke-linecap="round" stroke-linejoin="round"/>
<path d="M19.3984 2.00285V34.5522C19.3984 39.7711 23.3007 44.002 28.1146 44.002C30.6287 44.002 32.894 42.848 34.485 41.002" stroke="#FEFEF6" stroke-width="3.48823" stroke-linecap="round" stroke-linejoin="round"/>
<path d="M36.832 2.00247V26.002" stroke="#FEFEF6" stroke-width="3.48823" stroke-linecap="round" stroke-linejoin="round"/>
<path d="M28.1133 2.00218V12.502" stroke="#FEFEF6" stroke-width="3.48823" stroke-linecap="round" stroke-linejoin="round"/>
<path d="M28.1133 35V26.0002" stroke="#FEFEF6" stroke-width="3.48823" stroke-linecap="round" stroke-linejoin="round"/>
</svg>
